<?xml version="1.0" encoding="iso-8859-1"?>
<!-- Uploaded to: SVG Repo, www.svgrepo.com, Generator: SVG Repo Mixer Tools -->
<svg fill="#000000" height="800px" width="800px" version="1.1" id="Layer_1" xmlns="http://www.w3.org/2000/svg" xmlns:xlink="http://www.w3.org/1999/xlink" 
	 viewBox="0 0 511.505 511.505" xml:space="preserve">
<g>
	<g>
		<g>
			<path d="M255.466,164.658c-0.717,4.284-1.57,8.516-2.492,12.723c-0.026,0.128-0.051,0.247-0.077,0.375
				c-0.853,3.849-1.775,7.663-2.756,11.426c-0.145,0.563-0.282,1.118-0.435,1.673c-0.93,3.507-1.903,6.972-2.927,10.385
				c-0.128,0.427-0.247,0.862-0.375,1.289c-2.313,7.629-4.779,14.959-7.279,21.922c-0.239,0.648-0.469,1.271-0.7,1.92
				c-1.033,2.825-2.048,5.581-3.063,8.26c-0.273,0.7-0.529,1.382-0.794,2.074c-1.109,2.893-2.193,5.692-3.26,8.397
				c-0.085,0.213-0.171,0.435-0.256,0.657c-1.161,2.953-2.304,5.82-3.379,8.516l-0.478,1.186l-0.188,0.486l-0.102,0.247
				c-4.992,12.51-12.433,24.508-24.115,38.869c-0.828,1.024-1.544,2.091-2.261,3.149c-0.478,0.734-0.956,1.468-1.468,2.33
				l-0.853,1.545c-0.836,1.544-1.57,3.072-2.202,4.599c-0.026,0.068-0.316,0.751-0.35,0.811c-0.444,1.126-0.811,2.142-1.126,3.115
				c-0.017,0.043-0.034,0.085-0.043,0.128c1.673-0.777,3.319-1.562,4.89-2.364c0.469-0.23,0.905-0.461,1.357-0.7
				c1.28-0.666,2.526-1.323,3.695-1.963c0.495-0.273,0.981-0.538,1.442-0.794c1.22-0.683,2.381-1.348,3.43-1.963
				c0.213-0.128,0.461-0.265,0.657-0.384c1.22-0.717,2.287-1.365,3.2-1.937c0.333-0.205,0.614-0.384,0.896-0.563
				c0.546-0.341,1.075-0.674,1.442-0.913c0.179-0.111,0.384-0.247,0.521-0.333c0.307-0.205,0.631-0.418,0.648-0.427
				c0.12-0.102,0.811-0.674,1.988-1.613c9.045-7.287,40.277-31.693,71.996-48.495c68.958-69.623,94.063-129.536,81.647-141.952
				C362.764,96.801,319.201,108.961,255.466,164.658z M283.856,156.082c3.328-3.337,8.73-3.337,12.066,0
				c3.337,3.328,3.337,8.73,0,12.066c-3.337,3.337-8.738,3.337-12.066,0C280.519,164.812,280.519,159.41,283.856,156.082z
				 M253.255,262.015c-3.336,3.337-8.738,3.337-12.066,0c-3.337-3.337-3.337-8.738,0-12.066c3.328-3.336,8.73-3.336,12.066,0
				C256.592,253.277,256.592,258.679,253.255,262.015z M261.789,236.415c-3.336,3.336-8.738,3.336-12.066,0
				c-3.337-3.337-3.337-8.738,0-12.066c3.328-3.337,8.73-3.337,12.066,0C265.125,227.677,265.125,233.079,261.789,236.415z
				 M266.789,202.282c-3.337-3.337-3.337-8.738,0-12.066c3.328-3.336,8.73-3.336,12.066,0c3.337,3.328,3.337,8.73,0,12.066
				S270.117,205.618,266.789,202.282z M295.922,227.882c-3.337,3.337-8.738,3.337-12.066,0c-3.337-3.336-3.337-8.738,0-12.066
				c3.328-3.337,8.73-3.337,12.066,0C299.259,219.144,299.259,224.545,295.922,227.882z M312.989,193.748
				c-3.336,3.337-8.738,3.337-12.066,0c-3.337-3.337-3.337-8.738,0-12.066c3.328-3.337,8.73-3.337,12.066,0
				C316.325,185.01,316.325,190.412,312.989,193.748z M309.456,151.082c-3.337-3.337-3.337-8.738,0-12.066
				c3.328-3.337,8.73-3.337,12.066,0c3.337,3.328,3.337,8.73,0,12.066C318.186,154.418,312.784,154.418,309.456,151.082z
				 M338.589,168.148c-3.337,3.337-8.738,3.337-12.066,0c-3.337-3.336-3.337-8.738,0-12.066c3.328-3.337,8.73-3.337,12.066,0
				C341.925,159.41,341.925,164.812,338.589,168.148z M355.655,134.015c-3.337,3.337-8.738,3.337-12.066,0
				c-3.337-3.337-3.337-8.738,0-12.066c3.328-3.336,8.73-3.336,12.066,0C358.992,125.277,358.992,130.679,355.655,134.015z"/>
			<path d="M267.923,282.045c-0.316,0.205-0.631,0.418-0.947,0.632c-17.971,12.023-32.794,23.56-38.05,27.733
				c-0.683,0.546-1.417,1.126-2.082,1.664c-0.171,0.12-0.649,0.444-1.314,0.888c-0.085,0.051-0.196,0.128-0.282,0.188
				c-0.64,0.418-1.425,0.922-2.398,1.536c-0.29,0.179-0.623,0.384-0.939,0.58c-0.887,0.546-1.818,1.118-2.901,1.766
				c-0.503,0.299-1.041,0.606-1.579,0.922c-1.05,0.614-2.116,1.229-3.294,1.886c-0.674,0.375-1.357,0.751-2.065,1.135
				c-1.178,0.64-2.381,1.271-3.644,1.929c-0.802,0.418-1.596,0.819-2.432,1.229c-1.297,0.648-2.628,1.28-3.994,1.92
				c-0.87,0.401-1.724,0.794-2.611,1.195c-1.434,0.631-2.893,1.229-4.369,1.826c-0.87,0.35-1.724,0.708-2.611,1.041
				c-0.358,0.137-0.7,0.299-1.067,0.427c-0.043,1.51-0.145,3.055-0.307,4.676c36.028,13.841,76.211,2.5,98.654-28.279l0.708-0.964
				c18.278-25.549,35.166-44.032,52.352-57.156c-15.565-1.306-44.066,13.295-71.074,30.763
				C270.414,280.398,269.16,281.225,267.923,282.045z"/>
			<path d="M197.773,273.463c1.732-2.432,3.396-4.838,4.847-7.159c0.708-1.126,1.254-2.21,1.894-3.319
				c0.964-1.655,1.98-3.319,2.816-4.941c0.862-1.681,1.553-3.354,2.295-5.026c0.461-1.033,0.998-2.074,1.417-3.115
				c0.017-0.043,0.034-0.094,0.06-0.137l0.546-1.374c0.572-1.451,1.195-3.029,1.801-4.54c0.674-1.69,1.34-3.362,2.039-5.146
				c0.606-1.536,1.229-3.174,1.852-4.77c0.836-2.176,1.69-4.395,2.551-6.673c0.623-1.664,1.246-3.371,1.877-5.077
				c0.87-2.389,1.749-4.847,2.611-7.33c0.606-1.707,1.203-3.422,1.792-5.163c0.922-2.739,1.809-5.555,2.697-8.371
				c0.503-1.613,1.024-3.183,1.51-4.813c1.263-4.207,2.458-8.482,3.567-12.826c0.486-1.911,0.896-3.866,1.348-5.803
				c0.606-2.569,1.203-5.146,1.732-7.74c0.478-2.33,0.879-4.685,1.28-7.031c1.519-8.755,2.654-17.587,2.961-26.368
				c-8.038,14.865-19.447,32.469-33.98,46.268l-3.405,3.217c-26.266,24.781-48.939,46.199-48.708,113.297
				c0.051,13.286-7.202,25.182-18.927,31.044c-5.615,2.807-7.219,4.881-5.675,11.58c0.444,1.237,3.951,9.062,10.539,15.735
				c2.594,2.833,10.675,9.839,16.904,8.951c4.454-0.7,7.808-6.127,9.83-10.556c2.645-5.786,4.395-11.563,5.419-17.271v-0.06
				c0.29-1.613,0.495-3.055,0.657-4.446c0.171-1.647,0.341-3.294,0.375-4.924c0.111-5.649,0.828-12.467,2.654-19.61l0.154-0.657
				c0.009-0.026,0.017-0.051,0.026-0.077c1.451-5.453,3.644-11.068,6.767-16.538c0.162-0.273,0.299-0.546,0.461-0.828
				c0.026-0.034,0.051-0.068,0.077-0.111c0.606-1.024,1.254-2.048,1.937-3.063c1.05-1.587,2.091-3.063,3.174-4.395
				c2.637-3.243,5.026-6.332,7.202-9.318C197.124,274.462,197.406,273.975,197.773,273.463z"/>
			<path d="M454.063,8.497c-6.272-7.091-15.829-10.044-24.934-7.714c-0.341,0.085-0.666,0.188-0.99,0.316l-44.092,17.229
				c-19.004,4.813-38.554,7.253-58.129,7.253H185.587c-19.576,0-39.125-2.44-58.129-7.253L83.366,1.099
				c-0.324-0.128-0.648-0.23-0.99-0.316C73.28-1.538,63.714,1.406,57.442,8.497c-6.443,7.287-8.235,17.459-4.676,26.564
				l23.433,59.494c-21.965,100.898-21.939,209.544,0.085,323.012l-19.362,58.88c-3.396,8.687-1.86,18.551,4.002,25.754
				c4.872,5.99,11.887,9.293,19.336,9.293c1.417,0,2.85-0.111,4.292-0.367l50.466-8.585c3.396-0.58,6.801-1.084,10.18-1.587
				c4.147-0.614,8.252-1.22,12.245-1.937c15.095-2.731,29.798-4.105,43.699-4.105h109.218c13.901,0,28.604,1.374,43.708,4.105
				c3.985,0.717,8.09,1.323,12.237,1.937c3.379,0.504,6.784,1.007,10.18,1.587l50.466,8.585c8.977,1.562,17.826-1.792,23.629-8.926
				c5.862-7.202,7.398-17.067,4.156-25.31l-19.524-59.341c22.374-117.06,22.409-225.715,0.119-323.046l23.407-59.46
				C462.297,25.957,460.505,15.785,454.063,8.497z M315.49,452.248H196.023c-4.719,0-8.533-3.814-8.533-8.533
				s3.814-8.533,8.533-8.533H315.49c4.71,0,8.533,3.814,8.533,8.533S320.2,452.248,315.49,452.248z M204.557,409.581
				c0-4.719,3.814-8.533,8.533-8.533h85.333c4.71,0,8.533,3.814,8.533,8.533c0,4.719-3.823,8.533-8.533,8.533H213.09
				C208.371,418.115,204.557,414.3,204.557,409.581z M327.556,233.521c7.04-1.63,13.628-2.295,19.302-1.382
				c8.03,1.297,14.43,5.359,18.5,11.75c1.212,1.92,1.621,4.233,1.126,6.451c-0.503,2.219-1.86,4.139-3.78,5.35
				c-19.081,12.032-37.649,31.164-58.419,60.211l-0.614,0.845c-19.516,26.752-49.869,41.378-81.434,41.378
				c-11.546,0-23.228-2.091-34.62-6.118c-1.178,3.797-2.526,7.595-4.25,11.375c-5.495,12.015-13.167,18.85-22.81,20.326
				c-1.263,0.188-2.509,0.282-3.738,0.282c-14.729,0-26.718-12.834-28.134-14.413c-9.967-10.086-14.31-21.717-14.746-23.578
				c-4.821-20.941,9.856-28.288,14.677-30.703c5.888-2.927,9.515-8.96,9.489-15.71c-0.265-74.505,27.349-100.574,54.059-125.781
				l3.371-3.183c27.546-26.129,43.503-69.675,43.665-70.118c1.289-3.584,4.796-5.922,8.636-5.606
				c3.814,0.273,6.972,3.046,7.74,6.793c2.594,12.587,3.217,25.54,2.56,38.468c46.993-38.084,103.006-69.094,126.225-45.884
				C407.897,117.809,375.974,177.756,327.556,233.521z"/>
		</g>
	</g>
</g>
</svg>