<?xml version="1.0" encoding="UTF-8"?>
<svg xmlns="http://www.w3.org/2000/svg" xmlns:xlink="http://www.w3.org/1999/xlink" width="768px" height="768px" viewBox="0 0 768 768" version="1.1">
<g id="surface1">
<path style=" stroke:none;fill-rule:nonzero;fill:rgb(100%,100%,100%);fill-opacity:1;" d="M 445.5 768.75 C 297 768.75 148.875 768.75 0.75 768.75 C 0.75 512.75 0.75 256.75 0.75 0.75 C 256.75 0.75 512.75 0.75 768.75 0.75 C 768.75 256.75 768.75 512.75 768.75 768.75 C 661.125 768.75 553.5 768.75 445.5 768.75 M 230.371094 302.96875 C 231.0625 302.730469 231.746094 302.328125 232.453125 302.28125 C 240.585938 301.738281 248.722656 301.230469 256.859375 300.757812 C 265.875 300.230469 274.894531 299.671875 283.917969 299.273438 C 292.109375 298.914062 300.308594 298.726562 308.507812 298.503906 C 319.078125 298.21875 329.648438 297.976562 340.21875 297.691406 C 340.542969 297.679688 340.859375 297.40625 341.8125 296.949219 C 341.8125 286.660156 341.8125 276.140625 341.8125 264.75 C 349.675781 264.75 356.867188 264.75 364.054688 264.75 C 381.445312 264.75 398.835938 264.75 416.222656 264.75 C 427.632812 264.75 439.039062 264.75 450.804688 264.75 C 450.804688 276.394531 450.804688 286.949219 450.804688 297.40625 C 457.222656 297.785156 463.265625 298.246094 469.316406 298.476562 C 478.5 298.820312 487.695312 298.933594 496.882812 299.269531 C 508.394531 299.695312 519.90625 300.265625 531.417969 300.746094 C 538.109375 301.023438 544.808594 301.214844 551.503906 301.515625 C 555.578125 301.699219 559.65625 301.929688 563.71875 302.292969 C 574.261719 303.234375 584.789062 304.363281 595.339844 305.214844 C 603.597656 305.882812 611.882812 306.222656 620.148438 306.769531 C 623.839844 307.011719 627.515625 307.417969 631.203125 307.707031 C 638.140625 308.257812 645.078125 308.773438 652.015625 309.304688 C 652.078125 308.878906 652.136719 308.453125 652.199219 308.027344 C 606.488281 291.851562 559.355469 282.195312 510.75 277.980469 C 510.75 274.917969 510.574219 271.929688 510.851562 268.980469 C 510.945312 268.007812 512.039062 266.671875 512.984375 266.316406 C 515.902344 265.222656 518.96875 264.519531 522.253906 263.585938 C 521.761719 262.363281 521.542969 261.234375 520.929688 260.386719 C 516.058594 253.664062 511.136719 246.976562 506.183594 240.3125 C 498.820312 230.410156 491.367188 220.574219 484.066406 210.628906 C 481.96875 207.769531 479.910156 205.203125 476.484375 203.65625 C 464.960938 198.460938 453.605469 192.898438 442.117188 187.625 C 428.957031 181.582031 415.722656 175.695312 402.523438 169.738281 C 398.96875 168.132812 395.425781 167.257812 391.585938 168.996094 C 381.183594 173.699219 370.652344 178.125 360.320312 182.976562 C 344.636719 190.34375 329.074219 197.964844 313.488281 205.53125 C 312.191406 206.160156 310.792969 206.96875 309.949219 208.078125 C 300.136719 220.988281 290.402344 233.960938 280.695312 246.953125 C 276.699219 252.304688 272.820312 257.742188 268.546875 263.613281 C 270.796875 264.105469 272.289062 264.5 273.804688 264.742188 C 281.894531 266.035156 281.925781 266.023438 281.226562 274.199219 C 281.042969 276.378906 280.503906 278.191406 277.585938 278.351562 C 274.0625 278.546875 270.574219 279.308594 267.058594 279.738281 C 258.53125 280.789062 249.945312 281.484375 241.476562 282.882812 C 231.5 284.527344 221.558594 286.496094 211.714844 288.800781 C 194.207031 292.902344 176.746094 297.222656 159.34375 301.746094 C 152.730469 303.464844 146.332031 305.988281 139.835938 308.148438 C 140.832031 309 141.640625 309.054688 142.441406 308.992188 C 152.15625 308.257812 161.871094 307.496094 171.589844 306.757812 C 178.355469 306.246094 185.117188 305.699219 191.886719 305.269531 C 204.476562 304.472656 217.070312 303.75 230.371094 302.96875 M 384.375 494.25 C 371.933594 494.5 359.488281 494.652344 347.046875 495.027344 C 334.402344 495.40625 321.757812 495.875 309.125 496.535156 C 298.277344 497.105469 287.445312 497.898438 276.621094 498.773438 C 265.824219 499.648438 255.027344 500.574219 244.269531 501.792969 C 232.976562 503.074219 221.691406 504.519531 210.464844 506.28125 C 195.890625 508.570312 181.367188 511.195312 166.839844 513.789062 C 164.101562 514.28125 161.460938 515.320312 158.253906 516.257812 C 316.417969 516.257812 473.890625 516.257812 631.363281 516.257812 C 631.414062 515.816406 631.460938 515.375 631.507812 514.933594 C 611.476562 511.539062 591.46875 507.996094 571.40625 504.800781 C 560.035156 502.992188 548.597656 501.542969 537.144531 500.316406 C 525.390625 499.050781 513.59375 498.15625 501.800781 497.277344 C 490.097656 496.40625 478.386719 495.628906 466.664062 495.039062 C 457.738281 494.589844 448.796875 494.339844 439.855469 494.28125 C 421.613281 494.171875 403.367188 494.25 384.375 494.25 M 122.25 384.382812 C 122 387.195312 121.601562 390.007812 121.523438 392.824219 C 121.214844 404.519531 120.984375 416.214844 120.761719 427.90625 C 120.6875 431.65625 120.730469 435.40625 120.726562 439.152344 C 120.726562 450.175781 120.726562 461.195312 120.726562 472.5 C 127.117188 472.5 133.839844 472.453125 140.558594 472.523438 C 142.785156 472.546875 143.230469 471.441406 143.289062 469.492188 C 143.414062 465.175781 143.824219 460.867188 143.980469 456.546875 C 144.285156 448.230469 144.453125 439.910156 144.769531 431.59375 C 144.929688 427.386719 145.285156 423.183594 145.574219 418.660156 C 153.328125 431.117188 160.804688 443.179688 168.34375 455.207031 C 171.175781 459.726562 175.625 459.667969 178.546875 455.183594 C 181.265625 451.007812 184.046875 446.867188 186.722656 442.660156 C 191.324219 435.429688 195.859375 428.160156 200.425781 420.90625 C 200.730469 420.9375 201.035156 420.972656 201.339844 421.003906 C 202.402344 438.160156 203.46875 455.320312 204.523438 472.308594 C 213.101562 472.308594 220.808594 472.308594 228.898438 472.308594 C 228.578125 469.789062 228.15625 467.519531 228.023438 465.230469 C 227.46875 455.847656 226.957031 446.457031 226.515625 437.066406 C 225.964844 425.300781 225.488281 413.535156 225.003906 401.765625 C 224.726562 394.949219 224.539062 388.125 224.207031 381.304688 C 224.152344 380.183594 223.574219 379.085938 223.359375 378.375 C 221.398438 378.527344 219.960938 378.726562 218.519531 378.734375 C 212.519531 378.769531 206.515625 378.933594 200.53125 378.660156 C 198.105469 378.546875 196.839844 379.628906 195.867188 381.34375 C 190.402344 390.972656 185.035156 400.660156 179.578125 410.289062 C 177.683594 413.632812 175.613281 416.871094 173.199219 420.863281 C 165.03125 406.441406 157.261719 392.726562 149.480469 378.980469 C 140.585938 378.980469 131.523438 378.980469 122.25 378.980469 C 122.25 380.695312 122.25 382.175781 122.25 384.382812 M 500.996094 408.460938 C 497.855469 416.949219 497.199219 425.609375 498.710938 434.550781 C 500.832031 447.097656 506.425781 457.445312 516.847656 465.019531 C 529.886719 474.5 544.609375 476.761719 559.941406 473.816406 C 572.371094 471.425781 582.640625 464.925781 590.355469 454.394531 C 599.476562 441.9375 600.761719 428.0625 597.566406 413.878906 C 593.722656 396.832031 583.058594 385.15625 566.214844 379.421875 C 558.15625 376.679688 549.871094 377.03125 541.640625 377.335938 C 531.574219 377.703125 522.78125 381.710938 515.132812 388.238281 C 508.824219 393.625 504.355469 400.328125 500.996094 408.460938 M 243.800781 454.277344 C 241.714844 460.203125 239.632812 466.132812 237.394531 472.492188 C 245.640625 472.492188 253.363281 472.546875 261.082031 472.40625 C 261.816406 472.394531 262.875 471.304688 263.203125 470.480469 C 264.820312 466.421875 266.507812 462.355469 267.632812 458.148438 C 268.300781 455.640625 269.488281 455.144531 271.757812 455.21875 C 282.1875 455.566406 292.621094 455.800781 303.054688 456.082031 C 303.171875 456.085938 303.289062 456.171875 303.40625 456.21875 C 305.015625 460.917969 306.566406 465.640625 308.277344 470.304688 C 308.59375 471.15625 309.5625 472.382812 310.246094 472.394531 C 318.292969 472.539062 326.34375 472.488281 335.179688 472.488281 C 323.140625 440.785156 311.367188 409.78125 299.582031 378.75 C 291.140625 378.75 282.902344 378.78125 274.664062 378.726562 C 272.816406 378.714844 272.003906 379.203125 271.3125 381.195312 C 268.683594 388.757812 265.601562 396.160156 262.789062 403.660156 C 256.53125 420.347656 250.332031 437.058594 243.800781 454.277344 M 482.246094 400.128906 C 483.457031 399.601562 484.664062 399.070312 485.996094 398.488281 C 485.996094 397.882812 486.042969 397.261719 485.980469 396.652344 C 485.929688 396.175781 485.824219 395.671875 485.609375 395.246094 C 482.648438 389.332031 478.894531 383.976562 472.742188 381.121094 C 460.800781 375.578125 448.488281 375.476562 436.277344 380.082031 C 421.226562 385.761719 416.15625 397.75 417.972656 411.347656 C 418.480469 415.148438 421.050781 418.9375 423.449219 422.15625 C 427.488281 427.574219 433.859375 429.636719 439.90625 432.003906 C 446.238281 434.488281 452.691406 436.71875 458.816406 439.636719 C 460.820312 440.589844 463.25 443.417969 463.160156 445.273438 C 463.054688 447.429688 460.835938 450.34375 458.761719 451.386719 C 450.773438 455.394531 440.425781 452.691406 434.660156 446.039062 C 432.972656 444.089844 432.039062 443.738281 429.878906 444.667969 C 424.851562 446.820312 419.703125 448.683594 414.703125 450.890625 C 414.050781 451.175781 413.402344 453.113281 413.746094 453.730469 C 415.15625 456.261719 416.640625 458.878906 418.648438 460.921875 C 431.984375 474.488281 448.183594 477.367188 465.984375 472.640625 C 478.5625 469.300781 488.269531 456.859375 487.621094 443.359375 C 487.222656 435.160156 484.265625 428.59375 477.609375 424.15625 C 473.214844 421.226562 468.195312 419.15625 463.296875 417.070312 C 457.492188 414.59375 451.390625 412.796875 445.664062 410.167969 C 442.039062 408.5 440.339844 405.648438 444.035156 401.457031 C 450.328125 394.320312 460.785156 397.71875 465.453125 403.136719 C 467.03125 404.96875 467.917969 405.214844 469.988281 404.398438 C 473.828125 402.890625 477.808594 401.742188 482.246094 400.128906 M 366.003906 409.125 C 361.003906 399.773438 356.019531 390.414062 350.980469 381.082031 C 350.511719 380.214844 349.707031 378.875 349.039062 378.863281 C 340.242188 378.714844 331.441406 378.765625 321.796875 378.765625 C 323.167969 381.230469 324.09375 383.007812 325.117188 384.730469 C 333.855469 399.492188 342.546875 414.28125 351.398438 428.976562 C 354.558594 434.226562 356.890625 439.414062 356.378906 445.886719 C 355.8125 453.085938 356.25 460.367188 356.25 467.613281 C 356.25 469.183594 356.25 470.753906 356.25 472.230469 C 364.789062 472.230469 372.832031 472.230469 381 472.230469 C 381 461.222656 380.976562 450.484375 381.03125 439.75 C 381.039062 438.441406 381.160156 436.957031 381.769531 435.855469 C 385.546875 429.035156 389.457031 422.289062 393.359375 415.542969 C 400.398438 403.371094 407.464844 391.21875 414.695312 378.75 C 405.898438 378.75 397.546875 378.683594 389.199219 378.835938 C 388.152344 378.855469 386.703125 379.773438 386.15625 380.695312 C 383.074219 385.941406 380.195312 391.304688 377.277344 396.644531 C 374.351562 402.003906 371.457031 407.382812 368.289062 413.230469 C 367.394531 411.46875 366.898438 410.492188 366.003906 409.125 M 631.824219 378.75 C 625.261719 378.75 618.699219 378.75 612.277344 378.75 C 612.277344 410.3125 612.277344 441.34375 612.277344 472.207031 C 632.589844 472.207031 652.625 472.207031 672.554688 472.207031 C 672.554688 464.707031 672.554688 457.503906 672.554688 450.128906 C 660.816406 450.511719 649.269531 450.890625 637.367188 451.28125 C 637.367188 427.007812 637.367188 402.972656 637.367188 378.75 C 635.527344 378.75 634.042969 378.75 631.824219 378.75 M 637.125 546 C 610 546 582.875 545.929688 555.753906 546.039062 C 547.144531 546.074219 540.710938 551.414062 540.726562 560.777344 C 540.785156 595.277344 540.738281 629.777344 540.757812 664.273438 C 540.761719 672.820312 547.523438 679.492188 556.152344 679.496094 C 589.902344 679.507812 623.648438 679.433594 657.398438 679.558594 C 663.753906 679.582031 670.949219 672.011719 671.191406 666.144531 C 671.640625 655.207031 671.792969 644.257812 671.984375 633.308594 C 672.082031 627.5625 672.058594 621.808594 671.988281 616.0625 C 671.765625 597.238281 671.507812 578.417969 671.246094 559.597656 C 671.148438 552.527344 663.09375 545.667969 657.371094 545.933594 C 650.886719 546.230469 644.375 546 637.125 546 M 401.25 574.125 C 401.25 603.605469 401.390625 633.085938 401.175781 662.5625 C 401.097656 673.191406 407.460938 679.707031 418.226562 679.574219 C 439.332031 679.316406 460.445312 679.585938 481.554688 679.46875 C 494.230469 679.394531 506.90625 679.097656 519.574219 678.703125 C 524.941406 678.539062 531.5625 671.578125 531.726562 666.191406 C 532.050781 655.636719 532.308594 645.078125 532.476562 634.519531 C 532.589844 627.652344 532.566406 620.78125 532.484375 613.910156 C 532.273438 595.859375 531.96875 577.808594 531.765625 559.757812 C 531.683594 552.582031 523.441406 545.859375 517.660156 545.894531 C 483.6875 546.109375 449.710938 546 415.734375 546 C 407.710938 546 401.25 552.527344 401.25 560.632812 C 401.25 564.882812 401.25 569.128906 401.25 574.125 M 390.75 645.300781 C 390.5 616.867188 390.082031 588.433594 390.097656 560 C 390.105469 551.207031 383.570312 546.226562 376.574219 546.15625 C 343.082031 545.8125 309.585938 545.734375 276.097656 546.164062 C 266.257812 546.292969 260.1875 549.300781 260.222656 562.578125 C 260.308594 596.195312 260.335938 629.816406 260.199219 663.433594 C 260.15625 673.574219 265.539062 679.601562 276.148438 679.511719 C 283.769531 679.449219 291.394531 679.5 299.019531 679.5 C 325.261719 679.5 351.507812 679.503906 377.753906 679.496094 C 383.109375 679.492188 389.746094 673.726562 389.972656 668.714844 C 390.320312 661.15625 390.5 653.589844 390.75 645.300781 M 120.75 590.625 C 120.75 616.117188 120.746094 641.613281 120.761719 667.105469 C 120.761719 668.199219 120.566406 669.542969 121.097656 670.351562 C 124.523438 675.570312 128.769531 679.527344 135.609375 679.519531 C 166.976562 679.476562 198.34375 679.523438 229.707031 679.46875 C 233.277344 679.460938 236.863281 679.144531 240.410156 678.71875 C 244.503906 678.230469 250.371094 671.707031 250.484375 667.632812 C 250.773438 657.195312 251.226562 646.757812 251.1875 636.324219 C 251.085938 610.890625 250.730469 585.460938 250.507812 560.03125 C 250.433594 551.734375 244.695312 546.003906 236.316406 546.003906 C 202.574219 545.996094 168.835938 545.996094 135.09375 546 C 126.601562 546.003906 120.757812 551.8125 120.753906 560.257812 C 120.746094 570.128906 120.75 580.003906 120.75 590.625 M 276.445312 169.4375 C 252.320312 158.214844 228.195312 146.996094 205.632812 136.5 C 216.703125 148.195312 229.125 161.058594 241.230469 174.210938 C 247.128906 180.621094 252.597656 187.445312 257.964844 194.3125 C 262.082031 199.578125 265.6875 205.25 269.632812 210.65625 C 270.472656 211.808594 271.507812 213.550781 273.207031 211.074219 C 281.058594 199.632812 290.480469 189.546875 300.433594 179.933594 C 300.914062 179.464844 301.1875 178.785156 301.390625 178.464844 C 293.15625 175.449219 285.09375 172.5 276.445312 169.4375 M 582.75 140.625 C 584.390625 139.300781 586.035156 137.976562 587.675781 136.652344 C 587.355469 136.222656 587.03125 135.792969 586.710938 135.363281 C 555.75 152.367188 524.4375 168.578125 490.800781 178.976562 C 500.84375 190.25 510.878906 201.507812 520.804688 212.648438 C 524.8125 207.3125 528.839844 201.648438 533.183594 196.234375 C 541.082031 186.394531 548.878906 176.445312 557.261719 167.027344 C 565.273438 158.03125 573.976562 149.652344 582.75 140.625 M 375.800781 141.453125 C 374.980469 143.921875 374.160156 146.390625 373.460938 148.5 C 388.390625 148.5 402.964844 148.5 418.066406 148.5 C 407.65625 118.003906 401.761719 86.246094 396.484375 54.316406 C 391.199219 83.636719 385.9375 112.824219 375.800781 141.453125 M 414.789062 363.421875 C 418.222656 369.027344 423.539062 365.863281 428.546875 366.941406 C 428.546875 351.03125 428.546875 335.777344 428.546875 320.480469 C 425.292969 320.480469 421.996094 320.480469 418.015625 320.480469 C 418.015625 329.679688 418.015625 338.636719 418.015625 348.25 C 416.996094 347.433594 416.65625 347.269531 416.476562 347 C 410.980469 338.8125 405.515625 330.601562 399.992188 322.433594 C 399.425781 321.59375 398.5625 320.410156 397.777344 320.359375 C 394.226562 320.136719 390.652344 320.261719 387.179688 320.261719 C 387.179688 335.773438 387.179688 350.730469 387.179688 365.789062 C 390.660156 365.789062 393.953125 365.789062 397.675781 365.789062 C 397.675781 356.621094 397.675781 347.660156 397.675781 338.167969 C 403.515625 346.832031 408.964844 354.914062 414.789062 363.421875 M 232.257812 319.5 C 225.347656 319.382812 220.339844 322.875 215.964844 327.828125 C 211.390625 333.003906 210.382812 339.070312 210.726562 345.667969 C 211.167969 354.160156 215.597656 360.082031 222.515625 364.414062 C 227.050781 367.257812 232.207031 366.652344 237.238281 366.777344 C 243.921875 366.945312 248.824219 363.527344 252.589844 358.660156 C 256.882812 353.113281 255.636719 346.382812 255.695312 340.011719 C 248.480469 340.011719 241.683594 340.011719 235.042969 340.011719 C 235.042969 342.828125 235.042969 345.375 235.042969 347.699219 C 238.625 348.039062 241.898438 348.351562 245.148438 348.660156 C 244.957031 352.679688 241.835938 356.332031 238.222656 356.960938 C 232.5625 357.945312 225.839844 356.246094 223.019531 349.375 C 221.039062 344.554688 221.4375 336.835938 226.5625 332.511719 C 230.617188 329.09375 237.914062 328.476562 242.476562 332.546875 C 246.332031 335.988281 248.621094 333.90625 251.324219 331.765625 C 254.792969 329.019531 254.726562 328.546875 251.601562 325.460938 C 246.386719 320.3125 240.066406 318.722656 232.257812 319.5 M 352.148438 149.265625 C 334.59375 131.625 320.464844 111.304688 306.339844 90.761719 C 313.257812 115.59375 318.90625 140.484375 317.882812 166.425781 C 330.453125 161.433594 342.503906 156.648438 354.589844 151.851562 C 354.046875 151.273438 353.285156 150.46875 352.148438 149.265625 M 286.882812 320.25 C 282.351562 320.023438 277.820312 319.796875 272.921875 319.554688 C 273.21875 322.617188 273.644531 325.382812 273.722656 328.15625 C 274.039062 339.589844 274.183594 351.03125 274.597656 362.460938 C 274.640625 363.664062 275.886719 365.691406 276.804688 365.832031 C 279.679688 366.273438 282.664062 365.996094 285.75 365.996094 C 285.75 361.621094 285.648438 357.753906 285.808594 353.894531 C 285.859375 352.691406 286.605469 351.515625 287.03125 350.324219 C 288.308594 350.882812 289.703125 351.269531 290.824219 352.050781 C 291.566406 352.566406 291.964844 353.617188 292.4375 354.472656 C 299.054688 366.367188 299.050781 366.371094 311.207031 365.960938 C 311.3125 365.957031 311.414062 365.890625 311.691406 365.792969 C 308.285156 360.226562 304.894531 354.6875 301.910156 349.808594 C 303.746094 347.675781 305.574219 346.097656 306.703125 344.125 C 308.808594 340.4375 309.210938 336.511719 308.371094 332.167969 C 307.257812 326.429688 303.996094 322.070312 298.292969 321.0625 C 294.796875 320.445312 291.183594 320.496094 286.882812 320.25 M 474 160.085938 C 473.457031 136.804688 479.855469 114.710938 485.660156 92.394531 C 470.78125 113.300781 456.988281 134.90625 437.664062 152.003906 C 450.023438 157.175781 461.835938 162.121094 474 167.214844 C 474 164.996094 474 162.90625 474 160.085938 M 528.046875 348.945312 C 525.070312 340.234375 521.953125 331.5625 519.210938 322.777344 C 518.511719 320.535156 517.46875 320.175781 515.535156 320.226562 C 512.363281 320.3125 509.1875 320.25 505.441406 320.25 C 499.554688 334.882812 493.382812 350.214844 487.03125 366 C 489.75 366 491.734375 366 493.71875 366 C 495.824219 366 497.929688 366 499.960938 366 C 502.316406 357.75 502.316406 357.75 510.367188 357.75 C 511.863281 357.75 513.402344 357.972656 514.851562 357.707031 C 518.945312 356.957031 520.855469 358.863281 521.96875 362.59375 C 522.363281 363.917969 523.863281 365.636719 525.082031 365.84375 C 527.9375 366.324219 530.929688 365.996094 534.347656 365.996094 C 532.214844 360.125 530.28125 354.796875 528.046875 348.945312 M 369.808594 365.996094 C 372.648438 365.292969 370.964844 363.617188 370.5 362.371094 C 365.53125 349.074219 360.542969 335.78125 355.433594 322.539062 C 355.066406 321.582031 353.742188 320.410156 352.804688 320.355469 C 348.828125 320.109375 344.832031 320.25 340.945312 320.25 C 335.949219 335.515625 331.023438 350.566406 326.019531 365.851562 C 330.359375 365.851562 334.203125 365.851562 338 365.851562 C 338.6875 363.371094 339.335938 361.039062 340.039062 358.503906 C 344.195312 358.503906 348.332031 358.230469 352.40625 358.617188 C 354.441406 358.8125 357.839844 359.941406 358.066406 361.132812 C 358.933594 365.699219 361.453125 366.558594 365.378906 366.027344 C 366.605469 365.859375 367.875 366 369.808594 365.996094 M 589.066406 230.945312 C 593.851562 228.667969 598.640625 226.386719 603.425781 224.109375 C 578.289062 226.601562 553.375 230.386719 528.191406 227.953125 C 532.246094 238.910156 536.351562 250.011719 540.414062 260.992188 C 545.597656 257.058594 550.171875 252.90625 555.367188 249.785156 C 566.238281 243.25 577.433594 237.257812 589.066406 230.945312 M 240.375 228 C 223.375 226.8125 206.378906 225.621094 189.742188 224.457031 C 200.085938 229.503906 211.15625 234.28125 221.59375 240.179688 C 232.019531 246.070312 241.8125 253.085938 252.050781 259.714844 C 255.535156 249.589844 259.226562 238.867188 262.96875 228 C 255.609375 228 248.367188 228 240.375 228 M 548.25 332.699219 C 547.851562 338.667969 550.53125 342.699219 555.960938 345.042969 C 559.292969 346.480469 562.621094 347.941406 565.917969 349.460938 C 568.050781 350.441406 570.757812 351.765625 569.773438 354.347656 C 569.097656 356.117188 566.589844 357.609375 564.585938 358.296875 C 563.3125 358.734375 561.292969 357.738281 559.898438 356.902344 C 557.917969 355.710938 556.207031 354.070312 554.304688 352.566406 C 553.039062 353.015625 551.683594 353.53125 550.308594 353.980469 C 545.230469 355.636719 544.847656 356.976562 548.304688 361.160156 C 548.464844 361.351562 548.675781 361.503906 548.820312 361.699219 C 554.148438 368.90625 567.117188 368.863281 573.671875 365.574219 C 578.996094 362.90625 582.078125 358.136719 581.851562 352.246094 C 581.644531 346.800781 578.550781 342.679688 573.234375 340.519531 C 569.074219 338.828125 564.933594 337.078125 560.875 335.15625 C 558.410156 333.992188 557.964844 332.328125 560.269531 330.304688 C 562.960938 327.945312 565.570312 327.9375 569.730469 330.144531 C 571.15625 330.902344 573.03125 331.648438 574.476562 331.34375 C 577.027344 330.808594 579.410156 329.460938 582.082031 328.363281 C 580.710938 326.667969 579.699219 324.921875 578.246094 323.695312 C 572.699219 319.015625 565.902344 318.496094 559.34375 319.773438 C 552.566406 321.09375 548.570312 325.238281 548.25 332.699219 M 462.746094 355.132812 C 458.671875 358.019531 455.871094 357.90625 453.449219 353.867188 C 451.945312 351.355469 450.179688 351.550781 448.171875 351.964844 C 446.65625 352.277344 445.136719 352.960938 443.851562 353.828125 C 443.15625 354.296875 442.375 355.742188 442.621094 356.324219 C 443.519531 358.4375 444.632812 360.527344 446.03125 362.34375 C 450.367188 367.964844 460.476562 368.660156 467.039062 365.796875 C 472.546875 363.394531 475.105469 359.296875 474.765625 353.308594 C 474.667969 351.566406 474.785156 349.8125 474.789062 348.0625 C 474.792969 338.90625 474.789062 329.75 474.789062 320.445312 C 471.871094 320.445312 468.578125 320.445312 465 320.445312 C 465 330.480469 465.078125 340.324219 464.917969 350.164062 C 464.894531 351.6875 463.785156 353.195312 462.746094 355.132812 Z M 462.746094 355.132812 "/>
<path style=" stroke:none;fill-rule:nonzero;fill:rgb(92.54902%,32.156864%,7.843138%);fill-opacity:1;" d="M 230.015625 302.984375 C 217.070312 303.75 204.476562 304.472656 191.886719 305.269531 C 185.117188 305.699219 178.355469 306.246094 171.589844 306.757812 C 161.871094 307.496094 152.15625 308.257812 142.441406 308.992188 C 141.640625 309.054688 140.832031 309 139.835938 308.148438 C 146.332031 305.988281 152.730469 303.464844 159.34375 301.746094 C 176.746094 297.222656 194.207031 292.902344 211.714844 288.800781 C 221.558594 286.496094 231.5 284.527344 241.476562 282.882812 C 249.945312 281.484375 258.53125 280.789062 267.058594 279.738281 C 270.574219 279.308594 274.0625 278.546875 277.585938 278.351562 C 280.503906 278.191406 281.042969 276.378906 281.226562 274.199219 C 281.925781 266.023438 281.894531 266.035156 273.804688 264.742188 C 272.289062 264.5 270.796875 264.105469 268.546875 263.613281 C 272.820312 257.742188 276.699219 252.304688 280.695312 246.953125 C 290.402344 233.960938 300.136719 220.988281 309.949219 208.078125 C 310.792969 206.96875 312.191406 206.160156 313.488281 205.53125 C 329.074219 197.964844 344.636719 190.34375 360.320312 182.976562 C 370.652344 178.125 381.183594 173.699219 391.585938 168.996094 C 395.425781 167.257812 398.96875 168.132812 402.523438 169.738281 C 415.722656 175.695312 428.957031 181.582031 442.117188 187.625 C 453.605469 192.898438 464.960938 198.460938 476.484375 203.65625 C 479.910156 205.203125 481.96875 207.769531 484.066406 210.628906 C 491.367188 220.574219 498.820312 230.410156 506.183594 240.3125 C 511.136719 246.976562 516.058594 253.664062 520.929688 260.386719 C 521.542969 261.234375 521.761719 262.363281 522.253906 263.585938 C 518.96875 264.519531 515.902344 265.222656 512.984375 266.316406 C 512.039062 266.671875 510.945312 268.007812 510.851562 268.980469 C 510.574219 271.929688 510.75 274.917969 510.75 277.980469 C 559.355469 282.195312 606.488281 291.851562 652.199219 308.027344 C 652.136719 308.453125 652.078125 308.878906 652.015625 309.304688 C 645.078125 308.773438 638.140625 308.257812 631.203125 307.707031 C 627.515625 307.417969 623.839844 307.011719 620.148438 306.769531 C 611.882812 306.222656 603.597656 305.882812 595.339844 305.214844 C 584.789062 304.363281 574.261719 303.234375 563.71875 302.292969 C 559.65625 301.929688 555.578125 301.699219 551.503906 301.515625 C 544.808594 301.214844 538.109375 301.023438 531.417969 300.746094 C 519.90625 300.265625 508.394531 299.695312 496.882812 299.269531 C 487.695312 298.933594 478.5 298.820312 469.316406 298.476562 C 463.265625 298.246094 457.222656 297.785156 450.804688 297.40625 C 450.804688 286.949219 450.804688 276.394531 450.804688 264.75 C 439.039062 264.75 427.632812 264.75 416.222656 264.75 C 398.835938 264.75 381.445312 264.75 364.054688 264.75 C 356.867188 264.75 349.675781 264.75 341.8125 264.75 C 341.8125 276.140625 341.8125 286.660156 341.8125 296.949219 C 340.859375 297.40625 340.542969 297.679688 340.21875 297.691406 C 329.648438 297.976562 319.078125 298.21875 308.507812 298.503906 C 300.308594 298.726562 292.109375 298.914062 283.917969 299.273438 C 274.894531 299.671875 265.875 300.230469 256.859375 300.757812 C 248.722656 301.230469 240.585938 301.738281 232.453125 302.28125 C 231.746094 302.328125 231.0625 302.730469 230.015625 302.984375 Z M 230.015625 302.984375 "/>
<path style=" stroke:none;fill-rule:nonzero;fill:rgb(92.54902%,32.156864%,7.843138%);fill-opacity:1;" d="M 384.75 494.25 C 403.367188 494.25 421.613281 494.171875 439.855469 494.28125 C 448.796875 494.339844 457.738281 494.589844 466.664062 495.039062 C 478.386719 495.628906 490.097656 496.40625 501.800781 497.277344 C 513.59375 498.15625 525.390625 499.050781 537.144531 500.316406 C 548.597656 501.542969 560.035156 502.992188 571.40625 504.800781 C 591.46875 507.996094 611.476562 511.539062 631.507812 514.933594 C 631.460938 515.375 631.414062 515.816406 631.363281 516.257812 C 473.890625 516.257812 316.417969 516.257812 158.253906 516.257812 C 161.460938 515.320312 164.101562 514.28125 166.839844 513.789062 C 181.367188 511.195312 195.890625 508.570312 210.464844 506.28125 C 221.691406 504.519531 232.976562 503.074219 244.269531 501.792969 C 255.027344 500.574219 265.824219 499.648438 276.621094 498.773438 C 287.445312 497.898438 298.277344 497.105469 309.125 496.535156 C 321.757812 495.875 334.402344 495.40625 347.046875 495.027344 C 359.488281 494.652344 371.933594 494.5 384.75 494.25 Z M 384.75 494.25 "/>
<path style=" stroke:none;fill-rule:nonzero;fill:rgb(92.54902%,32.156864%,7.843138%);fill-opacity:1;" d="M 122.25 384.019531 C 122.25 382.175781 122.25 380.695312 122.25 378.980469 C 131.523438 378.980469 140.585938 378.980469 149.480469 378.980469 C 157.261719 392.726562 165.03125 406.441406 173.199219 420.863281 C 175.613281 416.871094 177.683594 413.632812 179.578125 410.289062 C 185.035156 400.660156 190.402344 390.972656 195.867188 381.34375 C 196.839844 379.628906 198.105469 378.546875 200.53125 378.660156 C 206.515625 378.933594 212.519531 378.769531 218.519531 378.734375 C 219.960938 378.726562 221.398438 378.527344 223.359375 378.375 C 223.574219 379.085938 224.152344 380.183594 224.207031 381.304688 C 224.539062 388.125 224.726562 394.949219 225.003906 401.765625 C 225.488281 413.535156 225.964844 425.300781 226.515625 437.066406 C 226.957031 446.457031 227.46875 455.847656 228.023438 465.230469 C 228.15625 467.519531 228.578125 469.789062 228.898438 472.308594 C 220.808594 472.308594 213.101562 472.308594 204.523438 472.308594 C 203.46875 455.320312 202.402344 438.160156 201.339844 421.003906 C 201.035156 420.972656 200.730469 420.9375 200.425781 420.90625 C 195.859375 428.160156 191.324219 435.429688 186.722656 442.660156 C 184.046875 446.867188 181.265625 451.007812 178.546875 455.183594 C 175.625 459.667969 171.175781 459.726562 168.34375 455.207031 C 160.804688 443.179688 153.328125 431.117188 145.574219 418.660156 C 145.285156 423.183594 144.929688 427.386719 144.769531 431.59375 C 144.453125 439.910156 144.285156 448.230469 143.980469 456.546875 C 143.824219 460.867188 143.414062 465.175781 143.289062 469.492188 C 143.230469 471.441406 142.785156 472.546875 140.558594 472.523438 C 133.839844 472.453125 127.117188 472.5 120.726562 472.5 C 120.726562 461.195312 120.726562 450.175781 120.726562 439.152344 C 120.730469 435.40625 120.6875 431.65625 120.761719 427.90625 C 120.984375 416.214844 121.214844 404.519531 121.523438 392.824219 C 121.601562 390.007812 122 387.195312 122.25 384.019531 Z M 122.25 384.019531 "/>
<path style=" stroke:none;fill-rule:nonzero;fill:rgb(92.54902%,32.156864%,7.843138%);fill-opacity:1;" d="M 501.015625 408.160156 C 504.355469 400.328125 508.824219 393.625 515.132812 388.238281 C 522.78125 381.710938 531.574219 377.703125 541.640625 377.335938 C 549.871094 377.03125 558.15625 376.679688 566.214844 379.421875 C 583.058594 385.15625 593.722656 396.832031 597.566406 413.878906 C 600.761719 428.0625 599.476562 441.9375 590.355469 454.394531 C 582.640625 464.925781 572.371094 471.425781 559.941406 473.816406 C 544.609375 476.761719 529.886719 474.5 516.847656 465.019531 C 506.425781 457.445312 500.832031 447.097656 498.710938 434.550781 C 497.199219 425.609375 497.855469 416.949219 501.015625 408.160156 M 522.75 427.800781 C 523.210938 430.546875 523.191406 433.484375 524.207031 436.003906 C 531.476562 454.015625 552.609375 457.238281 566.554688 444.671875 C 573.382812 438.515625 575.222656 430.421875 573.828125 421.269531 C 571.382812 405.25 557.4375 397.074219 542.027344 400.253906 C 530.792969 402.574219 521.238281 415.597656 522.75 427.800781 Z M 522.75 427.800781 "/>
<path style=" stroke:none;fill-rule:nonzero;fill:rgb(92.54902%,32.156864%,7.843138%);fill-opacity:1;" d="M 243.957031 454.019531 C 250.332031 437.058594 256.53125 420.347656 262.789062 403.660156 C 265.601562 396.160156 268.683594 388.757812 271.3125 381.195312 C 272.003906 379.203125 272.816406 378.714844 274.664062 378.726562 C 282.902344 378.78125 291.140625 378.75 299.582031 378.75 C 311.367188 409.78125 323.140625 440.785156 335.179688 472.488281 C 326.34375 472.488281 318.292969 472.539062 310.246094 472.394531 C 309.5625 472.382812 308.59375 471.15625 308.277344 470.304688 C 306.566406 465.640625 305.015625 460.917969 303.40625 456.21875 C 303.289062 456.171875 303.171875 456.085938 303.054688 456.082031 C 292.621094 455.800781 282.1875 455.566406 271.757812 455.21875 C 269.488281 455.144531 268.300781 455.640625 267.632812 458.148438 C 266.507812 462.355469 264.820312 466.421875 263.203125 470.480469 C 262.875 471.304688 261.816406 472.394531 261.082031 472.40625 C 253.363281 472.546875 245.640625 472.492188 237.394531 472.492188 C 239.632812 466.132812 241.714844 460.203125 243.957031 454.019531 M 275.9375 434.527344 C 275.710938 435.0625 275.484375 435.597656 275.136719 436.410156 C 282.320312 436.773438 289.183594 437.121094 296.832031 437.507812 C 293.273438 426.390625 289.96875 416.074219 286.664062 405.761719 C 286.390625 405.78125 286.117188 405.804688 285.84375 405.824219 C 282.5625 415.1875 279.28125 424.550781 275.9375 434.527344 Z M 275.9375 434.527344 "/>
<path style=" stroke:none;fill-rule:nonzero;fill:rgb(92.54902%,32.156864%,7.843138%);fill-opacity:1;" d="M 481.988281 400.289062 C 477.808594 401.742188 473.828125 402.890625 469.988281 404.398438 C 467.917969 405.214844 467.03125 404.96875 465.453125 403.136719 C 460.785156 397.71875 450.328125 394.320312 444.035156 401.457031 C 440.339844 405.648438 442.039062 408.5 445.664062 410.167969 C 451.390625 412.796875 457.492188 414.59375 463.296875 417.070312 C 468.195312 419.15625 473.214844 421.226562 477.609375 424.15625 C 484.265625 428.59375 487.222656 435.160156 487.621094 443.359375 C 488.269531 456.859375 478.5625 469.300781 465.984375 472.640625 C 448.183594 477.367188 431.984375 474.488281 418.648438 460.921875 C 416.640625 458.878906 415.15625 456.261719 413.746094 453.730469 C 413.402344 453.113281 414.050781 451.175781 414.703125 450.890625 C 419.703125 448.683594 424.851562 446.820312 429.878906 444.667969 C 432.039062 443.738281 432.972656 444.089844 434.660156 446.039062 C 440.425781 452.691406 450.773438 455.394531 458.761719 451.386719 C 460.835938 450.34375 463.054688 447.429688 463.160156 445.273438 C 463.25 443.417969 460.820312 440.589844 458.816406 439.636719 C 452.691406 436.71875 446.238281 434.488281 439.90625 432.003906 C 433.859375 429.636719 427.488281 427.574219 423.449219 422.15625 C 421.050781 418.9375 418.480469 415.148438 417.972656 411.347656 C 416.15625 397.75 421.226562 385.761719 436.277344 380.082031 C 448.488281 375.476562 460.800781 375.578125 472.742188 381.121094 C 478.894531 383.976562 482.648438 389.332031 485.609375 395.246094 C 485.824219 395.671875 485.929688 396.175781 485.980469 396.652344 C 486.042969 397.261719 485.996094 397.882812 485.996094 398.488281 C 484.664062 399.070312 483.457031 399.601562 481.988281 400.289062 Z M 481.988281 400.289062 "/>
<path style=" stroke:none;fill-rule:nonzero;fill:rgb(92.54902%,32.156864%,7.843138%);fill-opacity:1;" d="M 366.203125 409.320312 C 366.898438 410.492188 367.394531 411.46875 368.289062 413.230469 C 371.457031 407.382812 374.351562 402.003906 377.277344 396.644531 C 380.195312 391.304688 383.074219 385.941406 386.15625 380.695312 C 386.703125 379.773438 388.152344 378.855469 389.199219 378.835938 C 397.546875 378.683594 405.898438 378.75 414.695312 378.75 C 407.464844 391.21875 400.398438 403.371094 393.359375 415.542969 C 389.457031 422.289062 385.546875 429.035156 381.769531 435.855469 C 381.160156 436.957031 381.039062 438.441406 381.03125 439.75 C 380.976562 450.484375 381 461.222656 381 472.230469 C 372.832031 472.230469 364.789062 472.230469 356.25 472.230469 C 356.25 470.753906 356.25 469.183594 356.25 467.613281 C 356.25 460.367188 355.8125 453.085938 356.378906 445.886719 C 356.890625 439.414062 354.558594 434.226562 351.398438 428.976562 C 342.546875 414.28125 333.855469 399.492188 325.117188 384.730469 C 324.09375 383.007812 323.167969 381.230469 321.796875 378.765625 C 331.441406 378.765625 340.242188 378.714844 349.039062 378.863281 C 349.707031 378.875 350.511719 380.214844 350.980469 381.082031 C 356.019531 390.414062 361.003906 399.773438 366.203125 409.320312 Z M 366.203125 409.320312 "/>
<path style=" stroke:none;fill-rule:nonzero;fill:rgb(92.54902%,32.156864%,7.843138%);fill-opacity:1;" d="M 632.191406 378.75 C 634.042969 378.75 635.527344 378.75 637.367188 378.75 C 637.367188 402.972656 637.367188 427.007812 637.367188 451.28125 C 649.269531 450.890625 660.816406 450.511719 672.554688 450.128906 C 672.554688 457.503906 672.554688 464.707031 672.554688 472.207031 C 652.625 472.207031 632.589844 472.207031 612.277344 472.207031 C 612.277344 441.34375 612.277344 410.3125 612.277344 378.75 C 618.699219 378.75 625.261719 378.75 632.191406 378.75 Z M 632.191406 378.75 "/>
<path style=" stroke:none;fill-rule:nonzero;fill:rgb(92.54902%,32.156864%,7.843138%);fill-opacity:1;" d="M 637.5 546 C 644.375 546 650.886719 546.230469 657.371094 545.933594 C 663.09375 545.667969 671.148438 552.527344 671.246094 559.597656 C 671.507812 578.417969 671.765625 597.238281 671.988281 616.0625 C 672.058594 621.808594 672.082031 627.5625 671.984375 633.308594 C 671.792969 644.257812 671.640625 655.207031 671.191406 666.144531 C 670.949219 672.011719 663.753906 679.582031 657.398438 679.558594 C 623.648438 679.433594 589.902344 679.507812 556.152344 679.496094 C 547.523438 679.492188 540.761719 672.820312 540.757812 664.273438 C 540.738281 629.777344 540.785156 595.277344 540.726562 560.777344 C 540.710938 551.414062 547.144531 546.074219 555.753906 546.039062 C 582.875 545.929688 610 546 637.5 546 M 545.25 622.125 C 545.25 635.871094 545.25 649.621094 545.25 663.367188 C 545.25 670.582031 549.6875 674.992188 556.992188 674.996094 C 574.621094 675.003906 592.25 674.992188 609.878906 674.992188 C 624.128906 674.992188 638.375 674.996094 652.621094 675 C 662.433594 675.003906 666.683594 669.808594 666.710938 661 C 666.808594 628.257812 666.8125 595.511719 666.707031 562.769531 C 666.679688 554.488281 662.839844 550.558594 654.503906 550.535156 C 621.882812 550.449219 589.265625 550.476562 556.644531 550.519531 C 550.429688 550.527344 545.074219 554.234375 545.167969 561.761719 C 545.414062 581.628906 545.25 601.503906 545.25 622.125 Z M 545.25 622.125 "/>
<path style=" stroke:none;fill-rule:nonzero;fill:rgb(92.54902%,32.156864%,7.843138%);fill-opacity:1;" d="M 401.25 573.75 C 401.25 569.128906 401.25 564.882812 401.25 560.632812 C 401.25 552.527344 407.710938 546 415.734375 546 C 449.710938 546 483.6875 546.109375 517.660156 545.894531 C 523.441406 545.859375 531.683594 552.582031 531.765625 559.757812 C 531.96875 577.808594 532.273438 595.859375 532.484375 613.910156 C 532.566406 620.78125 532.589844 627.652344 532.476562 634.519531 C 532.308594 645.078125 532.050781 655.636719 531.726562 666.191406 C 531.5625 671.578125 524.941406 678.539062 519.574219 678.703125 C 506.90625 679.097656 494.230469 679.394531 481.554688 679.46875 C 460.445312 679.585938 439.332031 679.316406 418.226562 679.574219 C 407.460938 679.707031 401.097656 673.191406 401.175781 662.5625 C 401.390625 633.085938 401.25 603.605469 401.25 573.75 M 514.699219 550.5 C 509.824219 550.5 504.953125 550.5 500.082031 550.5 C 472.472656 550.5 444.867188 550.492188 417.257812 550.503906 C 410.722656 550.507812 405.765625 554.949219 405.761719 560.867188 C 405.738281 595.222656 405.734375 629.578125 405.761719 663.929688 C 405.769531 670.4375 410.382812 674.984375 416.945312 674.988281 C 449.550781 675.011719 482.15625 675.039062 514.761719 674.964844 C 521.175781 674.953125 527.453125 669.695312 527.386719 662.464844 C 527.078125 629.363281 527.300781 596.253906 527.214844 563.152344 C 527.191406 554.378906 523.484375 551.039062 514.699219 550.5 Z M 514.699219 550.5 "/>
<path style=" stroke:none;fill-rule:nonzero;fill:rgb(92.54902%,32.156864%,7.843138%);fill-opacity:1;" d="M 390.75 645.664062 C 390.5 653.589844 390.320312 661.15625 389.972656 668.714844 C 389.746094 673.726562 383.109375 679.492188 377.753906 679.496094 C 351.507812 679.503906 325.261719 679.5 299.019531 679.5 C 291.394531 679.5 283.769531 679.449219 276.148438 679.511719 C 265.539062 679.601562 260.15625 673.574219 260.199219 663.433594 C 260.335938 629.816406 260.308594 596.195312 260.222656 562.578125 C 260.1875 549.300781 266.257812 546.292969 276.097656 546.164062 C 309.585938 545.734375 343.082031 545.8125 376.574219 546.15625 C 383.570312 546.226562 390.105469 551.207031 390.097656 560 C 390.082031 588.433594 390.5 616.867188 390.75 645.664062 M 349.875 549.75 C 325.636719 549.75 301.394531 549.699219 277.15625 549.796875 C 272.578125 549.816406 268.261719 551.46875 266.140625 555.707031 C 264.902344 558.1875 264.8125 561.414062 264.804688 564.304688 C 264.71875 597.792969 264.75 631.277344 264.75 664.765625 C 264.75 670.105469 269.261719 674.875 274.582031 674.988281 C 288.394531 675.277344 302.207031 675.679688 316.019531 675.695312 C 327.960938 675.707031 339.902344 675.191406 351.84375 675.011719 C 358.964844 674.90625 366.097656 674.734375 373.203125 675.074219 C 380.480469 675.421875 386.519531 671.246094 386.304688 662.015625 C 386.066406 651.523438 386.25 641.023438 386.25 630.527344 C 386.25 608.039062 386.214844 585.546875 386.269531 563.058594 C 386.285156 555.199219 380.347656 549.015625 372.730469 549.625 C 365.40625 550.207031 357.996094 549.75 349.875 549.75 Z M 349.875 549.75 "/>
<path style=" stroke:none;fill-rule:nonzero;fill:rgb(92.54902%,32.156864%,7.843138%);fill-opacity:1;" d="M 120.75 590.25 C 120.75 580.003906 120.746094 570.128906 120.753906 560.257812 C 120.757812 551.8125 126.601562 546.003906 135.09375 546 C 168.835938 545.996094 202.574219 545.996094 236.316406 546.003906 C 244.695312 546.003906 250.433594 551.734375 250.507812 560.03125 C 250.730469 585.460938 251.085938 610.890625 251.1875 636.324219 C 251.226562 646.757812 250.773438 657.195312 250.484375 667.632812 C 250.371094 671.707031 244.503906 678.230469 240.410156 678.71875 C 236.863281 679.144531 233.277344 679.460938 229.707031 679.46875 C 198.34375 679.523438 166.976562 679.476562 135.609375 679.519531 C 128.769531 679.527344 124.523438 675.570312 121.097656 670.351562 C 120.566406 669.542969 120.761719 668.199219 120.761719 667.105469 C 120.746094 641.613281 120.75 616.117188 120.75 590.25 M 126.640625 555.523438 C 125.925781 559.199219 124.589844 562.878906 124.597656 566.554688 C 124.679688 599.230469 124.972656 631.90625 125.277344 664.582031 C 125.328125 670.367188 130.859375 675.71875 136.738281 675.726562 C 169.09375 675.773438 201.449219 675.785156 233.804688 675.722656 C 240.589844 675.710938 246.839844 669.207031 246.730469 662.421875 C 246.558594 651.867188 246.078125 641.3125 246.03125 630.757812 C 245.921875 606.773438 246.003906 582.789062 245.996094 558.804688 C 245.996094 554.945312 241.613281 550.53125 237.792969 550.5 C 205.121094 550.25 172.445312 550.078125 139.769531 549.671875 C 134.511719 549.609375 130.457031 551.371094 126.640625 555.523438 Z M 126.640625 555.523438 "/>
<path style=" stroke:none;fill-rule:nonzero;fill:rgb(92.54902%,32.156864%,7.843138%);fill-opacity:1;" d="M 276.738281 169.492188 C 285.09375 172.5 293.15625 175.449219 301.390625 178.464844 C 301.1875 178.785156 300.914062 179.464844 300.433594 179.933594 C 290.480469 189.546875 281.058594 199.632812 273.207031 211.074219 C 271.507812 213.550781 270.472656 211.808594 269.632812 210.65625 C 265.6875 205.25 262.082031 199.578125 257.964844 194.3125 C 252.597656 187.445312 247.128906 180.621094 241.230469 174.210938 C 229.125 161.058594 216.703125 148.195312 205.632812 136.5 C 228.195312 146.996094 252.320312 158.214844 276.738281 169.492188 Z M 276.738281 169.492188 "/>
<path style=" stroke:none;fill-rule:nonzero;fill:rgb(92.54902%,32.156864%,7.843138%);fill-opacity:1;" d="M 582.5625 140.8125 C 573.976562 149.652344 565.273438 158.03125 557.261719 167.027344 C 548.878906 176.445312 541.082031 186.394531 533.183594 196.234375 C 528.839844 201.648438 524.8125 207.3125 520.804688 212.648438 C 510.878906 201.507812 500.84375 190.25 490.800781 178.976562 C 524.4375 168.578125 555.75 152.367188 586.710938 135.363281 C 587.03125 135.792969 587.355469 136.222656 587.675781 136.652344 C 586.035156 137.976562 584.390625 139.300781 582.5625 140.8125 Z M 582.5625 140.8125 "/>
<path style=" stroke:none;fill-rule:nonzero;fill:rgb(92.54902%,32.156864%,7.843138%);fill-opacity:1;" d="M 375.980469 141.210938 C 385.9375 112.824219 391.199219 83.636719 396.484375 54.316406 C 401.761719 86.246094 407.65625 118.003906 418.066406 148.5 C 402.964844 148.5 388.390625 148.5 373.460938 148.5 C 374.160156 146.390625 374.980469 143.921875 375.980469 141.210938 Z M 375.980469 141.210938 "/>
<path style=" stroke:none;fill-rule:nonzero;fill:rgb(92.54902%,32.156864%,7.843138%);fill-opacity:1;" d="M 414.601562 363.210938 C 408.964844 354.914062 403.515625 346.832031 397.675781 338.167969 C 397.675781 347.660156 397.675781 356.621094 397.675781 365.789062 C 393.953125 365.789062 390.660156 365.789062 387.179688 365.789062 C 387.179688 350.730469 387.179688 335.773438 387.179688 320.261719 C 390.652344 320.261719 394.226562 320.136719 397.777344 320.359375 C 398.5625 320.410156 399.425781 321.59375 399.992188 322.433594 C 405.515625 330.601562 410.980469 338.8125 416.476562 347 C 416.65625 347.269531 416.996094 347.433594 418.015625 348.25 C 418.015625 338.636719 418.015625 329.679688 418.015625 320.480469 C 421.996094 320.480469 425.292969 320.480469 428.546875 320.480469 C 428.546875 335.777344 428.546875 351.03125 428.546875 366.941406 C 423.539062 365.863281 418.222656 369.027344 414.601562 363.210938 Z M 414.601562 363.210938 "/>
<path style=" stroke:none;fill-rule:nonzero;fill:rgb(92.54902%,32.156864%,7.843138%);fill-opacity:1;" d="M 232.613281 319.5 C 240.066406 318.722656 246.386719 320.3125 251.601562 325.460938 C 254.726562 328.546875 254.792969 329.019531 251.324219 331.765625 C 248.621094 333.90625 246.332031 335.988281 242.476562 332.546875 C 237.914062 328.476562 230.617188 329.09375 226.5625 332.511719 C 221.4375 336.835938 221.039062 344.554688 223.019531 349.375 C 225.839844 356.246094 232.5625 357.945312 238.222656 356.960938 C 241.835938 356.332031 244.957031 352.679688 245.148438 348.660156 C 241.898438 348.351562 238.625 348.039062 235.042969 347.699219 C 235.042969 345.375 235.042969 342.828125 235.042969 340.011719 C 241.683594 340.011719 248.480469 340.011719 255.695312 340.011719 C 255.636719 346.382812 256.882812 353.113281 252.589844 358.660156 C 248.824219 363.527344 243.921875 366.945312 237.238281 366.777344 C 232.207031 366.652344 227.050781 367.257812 222.515625 364.414062 C 215.597656 360.082031 211.167969 354.160156 210.726562 345.667969 C 210.382812 339.070312 211.390625 333.003906 215.964844 327.828125 C 220.339844 322.875 225.347656 319.382812 232.613281 319.5 Z M 232.613281 319.5 "/>
<path style=" stroke:none;fill-rule:nonzero;fill:rgb(92.54902%,32.156864%,7.843138%);fill-opacity:1;" d="M 352.339844 149.464844 C 353.285156 150.46875 354.046875 151.273438 354.589844 151.851562 C 342.503906 156.648438 330.453125 161.433594 317.882812 166.425781 C 318.90625 140.484375 313.257812 115.59375 306.339844 90.761719 C 320.464844 111.304688 334.59375 131.625 352.339844 149.464844 Z M 352.339844 149.464844 "/>
<path style=" stroke:none;fill-rule:nonzero;fill:rgb(92.54902%,32.156864%,7.843138%);fill-opacity:1;" d="M 287.253906 320.25 C 291.183594 320.496094 294.796875 320.445312 298.292969 321.0625 C 303.996094 322.070312 307.257812 326.429688 308.371094 332.167969 C 309.210938 336.511719 308.808594 340.4375 306.703125 344.125 C 305.574219 346.097656 303.746094 347.675781 301.910156 349.808594 C 304.894531 354.6875 308.285156 360.226562 311.691406 365.792969 C 311.414062 365.890625 311.3125 365.957031 311.207031 365.960938 C 299.050781 366.371094 299.054688 366.367188 292.4375 354.472656 C 291.964844 353.617188 291.566406 352.566406 290.824219 352.050781 C 289.703125 351.269531 288.308594 350.882812 287.03125 350.324219 C 286.605469 351.515625 285.859375 352.691406 285.808594 353.894531 C 285.648438 357.753906 285.75 361.621094 285.75 365.996094 C 282.664062 365.996094 279.679688 366.273438 276.804688 365.832031 C 275.886719 365.691406 274.640625 363.664062 274.597656 362.460938 C 274.183594 351.03125 274.039062 339.589844 273.722656 328.15625 C 273.644531 325.382812 273.21875 322.617188 272.921875 319.554688 C 277.820312 319.796875 282.351562 320.023438 287.253906 320.25 M 290.644531 341.25 C 295.289062 341.136719 298.429688 338.761719 298.433594 335.351562 C 298.441406 332.617188 295.019531 329.664062 291.167969 329.289062 C 289.226562 329.101562 287.25 329.257812 285.183594 329.257812 C 285.183594 333.664062 285.183594 337.714844 285.183594 342.234375 C 286.960938 341.871094 288.472656 341.5625 290.644531 341.25 Z M 290.644531 341.25 "/>
<path style=" stroke:none;fill-rule:nonzero;fill:rgb(92.54902%,32.156864%,7.843138%);fill-opacity:1;" d="M 474 160.453125 C 474 162.90625 474 164.996094 474 167.214844 C 461.835938 162.121094 450.023438 157.175781 437.664062 152.003906 C 456.988281 134.90625 470.78125 113.300781 485.660156 92.394531 C 479.855469 114.710938 473.457031 136.804688 474 160.453125 Z M 474 160.453125 "/>
<path style=" stroke:none;fill-rule:nonzero;fill:rgb(92.54902%,32.156864%,7.843138%);fill-opacity:1;" d="M 528.195312 349.210938 C 530.28125 354.796875 532.214844 360.125 534.347656 365.996094 C 530.929688 365.996094 527.9375 366.324219 525.082031 365.84375 C 523.863281 365.636719 522.363281 363.917969 521.96875 362.59375 C 520.855469 358.863281 518.945312 356.957031 514.851562 357.707031 C 513.402344 357.972656 511.863281 357.75 510.367188 357.75 C 502.316406 357.75 502.316406 357.75 499.960938 366 C 497.929688 366 495.824219 366 493.71875 366 C 491.734375 366 489.75 366 487.03125 366 C 493.382812 350.214844 499.554688 334.882812 505.441406 320.25 C 509.1875 320.25 512.363281 320.3125 515.535156 320.226562 C 517.46875 320.175781 518.511719 320.535156 519.210938 322.777344 C 521.953125 331.5625 525.070312 340.234375 528.195312 349.210938 M 513.425781 337.550781 C 512.957031 336.367188 512.484375 335.183594 511.765625 333.375 C 509.832031 338.558594 508.117188 343.160156 506.234375 348.214844 C 510.105469 347.96875 513.417969 347.757812 516.757812 347.542969 C 515.546875 343.792969 514.628906 340.933594 513.425781 337.550781 Z M 513.425781 337.550781 "/>
<path style=" stroke:none;fill-rule:nonzero;fill:rgb(92.54902%,32.156864%,7.843138%);fill-opacity:1;" d="M 369.46875 365.996094 C 367.875 366 366.605469 365.859375 365.378906 366.027344 C 361.453125 366.558594 358.933594 365.699219 358.066406 361.132812 C 357.839844 359.941406 354.441406 358.8125 352.40625 358.617188 C 348.332031 358.230469 344.195312 358.503906 340.039062 358.503906 C 339.335938 361.039062 338.6875 363.371094 338 365.851562 C 334.203125 365.851562 330.359375 365.851562 326.019531 365.851562 C 331.023438 350.566406 335.949219 335.515625 340.945312 320.25 C 344.832031 320.25 348.828125 320.109375 352.804688 320.355469 C 353.742188 320.410156 355.066406 321.582031 355.433594 322.539062 C 360.542969 335.78125 365.53125 349.074219 370.5 362.371094 C 370.964844 363.617188 372.648438 365.292969 369.46875 365.996094 M 345.796875 337.289062 C 344.757812 340.644531 343.71875 344 342.367188 348.363281 C 346.199219 348.542969 349.628906 348.703125 353.777344 348.898438 C 351.671875 342.988281 349.804688 337.738281 347.734375 331.933594 C 347.03125 334.023438 346.566406 335.398438 345.796875 337.289062 Z M 345.796875 337.289062 "/>
<path style=" stroke:none;fill-rule:nonzero;fill:rgb(92.54902%,32.156864%,7.843138%);fill-opacity:1;" d="M 588.78125 230.996094 C 577.433594 237.257812 566.238281 243.25 555.367188 249.785156 C 550.171875 252.90625 545.597656 257.058594 540.414062 260.992188 C 536.351562 250.011719 532.246094 238.910156 528.191406 227.953125 C 553.375 230.386719 578.289062 226.601562 603.425781 224.109375 C 598.640625 226.386719 593.851562 228.667969 588.78125 230.996094 Z M 588.78125 230.996094 "/>
<path style=" stroke:none;fill-rule:nonzero;fill:rgb(92.54902%,32.156864%,7.843138%);fill-opacity:1;" d="M 240.75 228 C 248.367188 228 255.609375 228 262.96875 228 C 259.226562 238.867188 255.535156 249.589844 252.050781 259.714844 C 241.8125 253.085938 232.019531 246.070312 221.59375 240.179688 C 211.15625 234.28125 200.085938 229.503906 189.742188 224.457031 C 206.378906 225.621094 223.375 226.8125 240.75 228 Z M 240.75 228 "/>
<path style=" stroke:none;fill-rule:nonzero;fill:rgb(92.54902%,32.156864%,7.843138%);fill-opacity:1;" d="M 548.25 332.367188 C 548.570312 325.238281 552.566406 321.09375 559.34375 319.773438 C 565.902344 318.496094 572.699219 319.015625 578.246094 323.695312 C 579.699219 324.921875 580.710938 326.667969 582.082031 328.363281 C 579.410156 329.460938 577.027344 330.808594 574.476562 331.34375 C 573.03125 331.648438 571.15625 330.902344 569.730469 330.144531 C 565.570312 327.9375 562.960938 327.945312 560.269531 330.304688 C 557.964844 332.328125 558.410156 333.992188 560.875 335.15625 C 564.933594 337.078125 569.074219 338.828125 573.234375 340.519531 C 578.550781 342.679688 581.644531 346.800781 581.851562 352.246094 C 582.078125 358.136719 578.996094 362.90625 573.671875 365.574219 C 567.117188 368.863281 554.148438 368.90625 548.820312 361.699219 C 548.675781 361.503906 548.464844 361.351562 548.304688 361.160156 C 544.847656 356.976562 545.230469 355.636719 550.308594 353.980469 C 551.683594 353.53125 553.039062 353.015625 554.304688 352.566406 C 556.207031 354.070312 557.917969 355.710938 559.898438 356.902344 C 561.292969 357.738281 563.3125 358.734375 564.585938 358.296875 C 566.589844 357.609375 569.097656 356.117188 569.773438 354.347656 C 570.757812 351.765625 568.050781 350.441406 565.917969 349.460938 C 562.621094 347.941406 559.292969 346.480469 555.960938 345.042969 C 550.53125 342.699219 547.851562 338.667969 548.25 332.367188 Z M 548.25 332.367188 "/>
<path style=" stroke:none;fill-rule:nonzero;fill:rgb(92.54902%,32.156864%,7.843138%);fill-opacity:1;" d="M 462.960938 354.921875 C 463.785156 353.195312 464.894531 351.6875 464.917969 350.164062 C 465.078125 340.324219 465 330.480469 465 320.445312 C 468.578125 320.445312 471.871094 320.445312 474.789062 320.445312 C 474.789062 329.75 474.792969 338.90625 474.789062 348.0625 C 474.785156 349.8125 474.667969 351.566406 474.765625 353.308594 C 475.105469 359.296875 472.546875 363.394531 467.039062 365.796875 C 460.476562 368.660156 450.367188 367.964844 446.03125 362.34375 C 444.632812 360.527344 443.519531 358.4375 442.621094 356.324219 C 442.375 355.742188 443.15625 354.296875 443.851562 353.828125 C 445.136719 352.960938 446.65625 352.277344 448.171875 351.964844 C 450.179688 351.550781 451.945312 351.355469 453.449219 353.867188 C 455.871094 357.90625 458.671875 358.019531 462.960938 354.921875 Z M 462.960938 354.921875 "/>
<path style=" stroke:none;fill-rule:nonzero;fill:rgb(100%,100%,100%);fill-opacity:1;" d="M 522.75 427.445312 C 521.238281 415.597656 530.792969 402.574219 542.027344 400.253906 C 557.4375 397.074219 571.382812 405.25 573.828125 421.269531 C 575.222656 430.421875 573.382812 438.515625 566.554688 444.671875 C 552.609375 457.238281 531.476562 454.015625 524.207031 436.003906 C 523.191406 433.484375 523.210938 430.546875 522.75 427.445312 Z M 522.75 427.445312 "/>
<path style=" stroke:none;fill-rule:nonzero;fill:rgb(100%,100%,100%);fill-opacity:1;" d="M 275.96875 434.21875 C 279.28125 424.550781 282.5625 415.1875 285.84375 405.824219 C 286.117188 405.804688 286.390625 405.78125 286.664062 405.761719 C 289.96875 416.074219 293.273438 426.390625 296.832031 437.507812 C 289.183594 437.121094 282.320312 436.773438 275.136719 436.410156 C 275.484375 435.597656 275.710938 435.0625 275.96875 434.21875 Z M 275.96875 434.21875 "/>
<path style=" stroke:none;fill-rule:nonzero;fill:rgb(100%,100%,100%);fill-opacity:1;" d="M 545.25 621.75 C 545.25 601.503906 545.414062 581.628906 545.167969 561.761719 C 545.074219 554.234375 550.429688 550.527344 556.644531 550.519531 C 589.265625 550.476562 621.882812 550.449219 654.503906 550.535156 C 662.839844 550.558594 666.679688 554.488281 666.707031 562.769531 C 666.8125 595.511719 666.808594 628.257812 666.710938 661 C 666.683594 669.808594 662.433594 675.003906 652.621094 675 C 638.375 674.996094 624.128906 674.992188 609.878906 674.992188 C 592.25 674.992188 574.621094 675.003906 556.992188 674.996094 C 549.6875 674.992188 545.25 670.582031 545.25 663.367188 C 545.25 649.621094 545.25 635.871094 545.25 621.75 M 575.25 640.835938 C 575.738281 643.210938 576.089844 645.625 576.746094 647.957031 C 577.566406 650.878906 577.832031 654.722656 579.824219 656.335938 C 581.84375 657.972656 585.671875 657.355469 588.707031 657.761719 C 589.675781 657.890625 590.628906 658.136719 591.886719 658.386719 C 587.367188 650.667969 586.691406 648.34375 587.335938 641.0625 C 587.425781 640.074219 588.625 638.4375 589.40625 638.375 C 595.457031 637.90625 601.535156 637.640625 607.605469 637.613281 C 608.589844 637.609375 610.128906 638.925781 610.453125 639.941406 C 611.261719 642.46875 611.414062 645.203125 612.019531 647.808594 C 614.726562 659.40625 611.042969 657.691406 623.15625 657.6875 C 623.378906 657.6875 623.601562 657.488281 624.015625 657.289062 C 623.421875 651.609375 621.1875 645.855469 623.171875 640.160156 C 624.976562 645.527344 626.699219 650.835938 628.589844 656.085938 C 628.84375 656.792969 629.90625 657.628906 630.640625 657.671875 C 633.605469 657.851562 636.585938 657.746094 639.785156 657.746094 C 638.6875 654.199219 637.433594 651.035156 636.769531 647.753906 C 636.078125 644.34375 635.957031 640.816406 635.59375 637.359375 C 638.984375 636.359375 642.140625 635.5 645.246094 634.496094 C 653.515625 631.828125 658.84375 626.511719 659.949219 617.628906 C 660.261719 615.136719 660.421875 612.898438 656.613281 612.453125 C 652.050781 611.917969 648.554688 609.5 647.519531 604.445312 C 647.214844 602.96875 646.070312 601.664062 645.726562 601.039062 C 647.589844 597.71875 649.578125 594.828125 650.902344 591.660156 C 652.886719 586.902344 651.953125 585.707031 646.820312 585.765625 C 641.171875 585.835938 635.957031 585.660156 630.726562 582.214844 C 623.527344 577.46875 614.699219 577.289062 606.292969 576.832031 C 598.941406 576.433594 591.546875 576.898438 584.179688 576.707031 C 576.847656 576.519531 570.714844 579.550781 564.671875 583.152344 C 562.429688 584.488281 560.023438 585.78125 557.523438 586.40625 C 553.121094 587.511719 551.984375 589.292969 552.648438 593.96875 C 553.429688 599.4375 553.511719 605.007812 554.320312 610.472656 C 555.007812 615.128906 556.292969 619.703125 557.332031 624.308594 C 558.289062 628.546875 559.519531 632.738281 560.183594 637.019531 C 560.859375 641.390625 560.617188 645.917969 561.445312 650.246094 C 563.238281 659.59375 562.933594 657.492188 571.28125 657.742188 C 572.015625 657.761719 572.75 657.664062 573.664062 657.613281 C 572.921875 653.683594 572.089844 649.9375 571.535156 646.152344 C 570.945312 642.128906 572.144531 638.59375 575.25 635.082031 C 575.25 637.203125 575.25 638.683594 575.25 640.835938 Z M 575.25 640.835938 "/>
<path style=" stroke:none;fill-rule:nonzero;fill:rgb(100%,100%,100%);fill-opacity:1;" d="M 515.046875 550.5 C 523.484375 551.039062 527.191406 554.378906 527.214844 563.152344 C 527.300781 596.253906 527.078125 629.363281 527.386719 662.464844 C 527.453125 669.695312 521.175781 674.953125 514.761719 674.964844 C 482.15625 675.039062 449.550781 675.011719 416.945312 674.988281 C 410.382812 674.984375 405.769531 670.4375 405.761719 663.929688 C 405.734375 629.578125 405.738281 595.222656 405.761719 560.867188 C 405.765625 554.949219 410.722656 550.507812 417.257812 550.503906 C 444.867188 550.492188 472.472656 550.5 500.082031 550.5 C 504.953125 550.5 509.824219 550.5 515.046875 550.5 M 429.675781 629.621094 C 431.464844 632.886719 432.871094 636.453125 435.125 639.359375 C 440.40625 646.164062 448.398438 648.285156 456.265625 650.105469 C 459.566406 650.871094 460.949219 652.53125 461.847656 655.988281 C 456.480469 656.601562 451.367188 657.1875 446.40625 657.757812 C 446.40625 659.273438 446.40625 660.230469 446.40625 661.492188 C 453.773438 661.492188 460.996094 661.5625 468.214844 661.417969 C 469.425781 661.394531 470.621094 660.429688 472.195312 659.734375 C 471.175781 658.234375 470.207031 657.117188 469.597656 655.832031 C 468.910156 654.371094 468.097656 652.722656 468.234375 651.238281 C 468.292969 650.558594 470.4375 649.832031 471.730469 649.535156 C 480.878906 647.433594 489.4375 644.128906 494.648438 635.792969 C 498.667969 629.355469 502.90625 623.25 508.609375 618.160156 C 511.707031 615.394531 511.597656 611.660156 508.929688 608.277344 C 516.324219 603.347656 517.03125 598.605469 511.011719 594.265625 C 515.355469 589.605469 515.167969 586.011719 512 582.441406 C 508.824219 578.855469 504.109375 580.078125 500.164062 581.089844 C 493.871094 582.703125 490.648438 588.1875 487.339844 593.136719 C 481.808594 601.410156 473.859375 603.789062 464.640625 602.878906 C 461.066406 602.523438 457.320312 601.429688 455.289062 597.839844 C 453.433594 594.566406 451.882812 591.117188 449.9375 587.898438 C 448.328125 585.246094 446.34375 582.820312 444.339844 580.035156 C 444.789062 579.367188 445.859375 578.265625 446.328125 576.949219 C 446.988281 575.097656 448.015625 572.734375 447.371094 571.242188 C 446.695312 569.675781 444.300781 568.757812 442.523438 567.804688 C 441.617188 567.320312 440.125 567.738281 439.394531 567.140625 C 436.214844 564.535156 433.375 565.273438 430.382812 567.433594 C 429.238281 568.261719 427.808594 568.714844 426.464844 569.234375 C 422.480469 570.773438 420.921875 575.472656 423.332031 578.921875 C 423.941406 579.796875 424.722656 580.546875 425.496094 581.429688 C 422.429688 582.992188 419.699219 584.382812 416.070312 586.230469 C 419.503906 587.8125 421.976562 588.949219 424.558594 590.140625 C 424.378906 590.734375 424.265625 591.332031 424.027344 591.875 C 421.996094 596.488281 422.4375 600.480469 427.484375 602.742188 C 428.25 603.085938 428.902344 604.578125 428.925781 605.558594 C 429.136719 613.410156 429.179688 621.269531 429.675781 629.621094 Z M 429.675781 629.621094 "/>
<path style=" stroke:none;fill-rule:nonzero;fill:rgb(100%,100%,100%);fill-opacity:1;" d="M 350.25 549.75 C 357.996094 549.75 365.40625 550.207031 372.730469 549.625 C 380.347656 549.015625 386.285156 555.199219 386.269531 563.058594 C 386.214844 585.546875 386.25 608.039062 386.25 630.527344 C 386.25 641.023438 386.066406 651.523438 386.304688 662.015625 C 386.519531 671.246094 380.480469 675.421875 373.203125 675.074219 C 366.097656 674.734375 358.964844 674.90625 351.84375 675.011719 C 339.902344 675.191406 327.960938 675.707031 316.019531 675.695312 C 302.207031 675.679688 288.394531 675.277344 274.582031 674.988281 C 269.261719 674.875 264.75 670.105469 264.75 664.765625 C 264.75 631.277344 264.71875 597.792969 264.804688 564.304688 C 264.8125 561.414062 264.902344 558.1875 266.140625 555.707031 C 268.261719 551.46875 272.578125 549.816406 277.15625 549.796875 C 301.394531 549.699219 325.636719 549.75 350.25 549.75 M 292.554688 612.492188 C 292.410156 613.085938 292.359375 613.722656 292.105469 614.265625 C 286.636719 625.929688 284.515625 637.453125 293.160156 648.722656 C 293.609375 649.308594 293.242188 650.890625 292.773438 651.746094 C 290.980469 655.023438 291.253906 656.59375 294.53125 658.699219 C 296.160156 659.746094 297.847656 660.808594 299.652344 661.453125 C 304.921875 663.34375 306.300781 662.683594 308.242188 657.75 C 311.714844 657.75 315.214844 657.832031 318.710938 657.734375 C 326.222656 657.515625 332.316406 653.9375 337.390625 648.84375 C 342.472656 643.742188 345.015625 637.054688 347.277344 630.304688 C 349.75 622.925781 352.96875 615.949219 359.238281 610.902344 C 360.949219 609.527344 362.894531 608.433594 364.527344 606.984375 C 365.25 606.34375 365.734375 605.15625 365.777344 604.1875 C 365.792969 603.828125 364.207031 602.992188 363.421875 603.070312 C 359.671875 603.445312 355.777344 603.53125 352.25 604.683594 C 341.632812 608.152344 333.203125 615.078125 325.480469 622.890625 C 321.039062 627.386719 316.8125 632.09375 312.425781 636.644531 C 311.746094 637.351562 310.742188 637.746094 309.886719 638.285156 C 309.539062 637.859375 309.195312 637.433594 308.847656 637.007812 C 315.554688 630.613281 322.515625 624.457031 328.820312 617.6875 C 330.949219 615.402344 335.605469 613.453125 332.9375 608.769531 C 335.6875 608.550781 338.417969 608.828125 340.777344 608.019531 C 344.101562 606.878906 347.390625 605.269531 350.234375 603.222656 C 352.371094 601.679688 354.449219 599.394531 355.402344 596.988281 C 358.1875 589.945312 358.792969 582.441406 358.464844 574.917969 C 358.148438 567.75 355.3125 563.402344 349.667969 562.773438 C 346.046875 562.371094 341.96875 562.984375 338.570312 564.335938 C 329.90625 567.777344 324.40625 575.121094 318.777344 582.113281 C 315.304688 586.421875 312.15625 590.996094 308.828125 595.496094 C 303.578125 581.492188 299.546875 577.152344 294.660156 577.136719 C 295.679688 582.113281 297.847656 587.265625 297.472656 592.226562 C 296.96875 598.890625 294.507812 605.410156 292.554688 612.492188 Z M 292.554688 612.492188 "/>
<path style=" stroke:none;fill-rule:nonzero;fill:rgb(100%,100%,100%);fill-opacity:1;" d="M 126.828125 555.304688 C 130.457031 551.371094 134.511719 549.609375 139.769531 549.671875 C 172.445312 550.078125 205.121094 550.25 237.792969 550.5 C 241.613281 550.53125 245.996094 554.945312 245.996094 558.804688 C 246.003906 582.789062 245.921875 606.773438 246.03125 630.757812 C 246.078125 641.3125 246.558594 651.867188 246.730469 662.421875 C 246.839844 669.207031 240.589844 675.710938 233.804688 675.722656 C 201.449219 675.785156 169.09375 675.773438 136.738281 675.726562 C 130.859375 675.71875 125.328125 670.367188 125.277344 664.582031 C 124.972656 631.90625 124.679688 599.230469 124.597656 566.554688 C 124.589844 562.878906 125.925781 559.199219 126.828125 555.304688 M 138 625.808594 C 137.929688 633.726562 140.007812 640.992188 144.78125 647.359375 C 153.125 658.480469 164.230469 662.265625 175.675781 659.726562 C 194.515625 655.550781 203.652344 640.625 203.105469 622.972656 C 202.914062 616.832031 201.550781 610.59375 199.835938 604.65625 C 196.800781 594.167969 191.683594 584.644531 184.46875 576.339844 C 179.535156 570.660156 169.898438 567.664062 163.785156 571.136719 C 159.242188 573.710938 154.945312 577.472656 151.828125 581.667969 C 142.324219 594.453125 137.210938 608.890625 138 625.808594 M 234 608.589844 C 233.75 606.769531 233.652344 604.914062 233.222656 603.136719 C 230.796875 593.121094 227.648438 583.597656 220.128906 575.828125 C 211.757812 567.175781 197.488281 570.714844 191.292969 578.398438 C 201.816406 592.691406 206.167969 609.144531 206.878906 623.71875 C 207.445312 635.347656 203.320312 645.554688 194.847656 653.820312 C 193.890625 654.753906 193.210938 655.96875 192.058594 657.515625 C 193.648438 657.664062 194.429688 657.59375 195.105469 657.824219 C 206.859375 661.789062 216.746094 657.894531 224.949219 649.757812 C 236.433594 638.371094 235.710938 623.832031 234 608.589844 Z M 234 608.589844 "/>
<path style=" stroke:none;fill-rule:nonzero;fill:rgb(100%,100%,100%);fill-opacity:1;" d="M 290.316406 341.253906 C 288.472656 341.5625 286.960938 341.871094 285.183594 342.234375 C 285.183594 337.714844 285.183594 333.664062 285.183594 329.257812 C 287.25 329.257812 289.226562 329.101562 291.167969 329.289062 C 295.019531 329.664062 298.441406 332.617188 298.433594 335.351562 C 298.429688 338.761719 295.289062 341.136719 290.316406 341.253906 Z M 290.316406 341.253906 "/>
<path style=" stroke:none;fill-rule:nonzero;fill:rgb(100%,100%,100%);fill-opacity:1;" d="M 513.566406 337.816406 C 514.628906 340.933594 515.546875 343.792969 516.757812 347.542969 C 513.417969 347.757812 510.105469 347.96875 506.234375 348.214844 C 508.117188 343.160156 509.832031 338.558594 511.765625 333.375 C 512.484375 335.183594 512.957031 336.367188 513.566406 337.816406 Z M 513.566406 337.816406 "/>
<path style=" stroke:none;fill-rule:nonzero;fill:rgb(100%,100%,100%);fill-opacity:1;" d="M 345.949219 337.03125 C 346.566406 335.398438 347.03125 334.023438 347.734375 331.933594 C 349.804688 337.738281 351.671875 342.988281 353.777344 348.898438 C 349.628906 348.703125 346.199219 348.542969 342.367188 348.363281 C 343.71875 344 344.757812 340.644531 345.949219 337.03125 Z M 345.949219 337.03125 "/>
<path style=" stroke:none;fill-rule:nonzero;fill:rgb(92.54902%,32.156864%,7.843138%);fill-opacity:1;" d="M 575.25 640.5 C 575.25 638.683594 575.25 637.203125 575.25 635.082031 C 572.144531 638.59375 570.945312 642.128906 571.535156 646.152344 C 572.089844 649.9375 572.921875 653.683594 573.664062 657.613281 C 572.75 657.664062 572.015625 657.761719 571.28125 657.742188 C 562.933594 657.492188 563.238281 659.59375 561.445312 650.246094 C 560.617188 645.917969 560.859375 641.390625 560.183594 637.019531 C 559.519531 632.738281 558.289062 628.546875 557.332031 624.308594 C 556.292969 619.703125 555.007812 615.128906 554.320312 610.472656 C 553.511719 605.007812 553.429688 599.4375 552.648438 593.96875 C 551.984375 589.292969 553.121094 587.511719 557.523438 586.40625 C 560.023438 585.78125 562.429688 584.488281 564.671875 583.152344 C 570.714844 579.550781 576.847656 576.519531 584.179688 576.707031 C 591.546875 576.898438 598.941406 576.433594 606.292969 576.832031 C 614.699219 577.289062 623.527344 577.46875 630.726562 582.214844 C 635.957031 585.660156 641.171875 585.835938 646.820312 585.765625 C 651.953125 585.707031 652.886719 586.902344 650.902344 591.660156 C 649.578125 594.828125 647.589844 597.71875 645.726562 601.039062 C 646.070312 601.664062 647.214844 602.96875 647.519531 604.445312 C 648.554688 609.5 652.050781 611.917969 656.613281 612.453125 C 660.421875 612.898438 660.261719 615.136719 659.949219 617.628906 C 658.84375 626.511719 653.515625 631.828125 645.246094 634.496094 C 642.140625 635.5 638.984375 636.359375 635.59375 637.359375 C 635.957031 640.816406 636.078125 644.34375 636.769531 647.753906 C 637.433594 651.035156 638.6875 654.199219 639.785156 657.746094 C 636.585938 657.746094 633.605469 657.851562 630.640625 657.671875 C 629.90625 657.628906 628.84375 656.792969 628.589844 656.085938 C 626.699219 650.835938 624.976562 645.527344 623.171875 640.160156 C 621.1875 645.855469 623.421875 651.609375 624.015625 657.289062 C 623.601562 657.488281 623.378906 657.6875 623.15625 657.6875 C 611.042969 657.691406 614.726562 659.40625 612.019531 647.808594 C 611.414062 645.203125 611.261719 642.46875 610.453125 639.941406 C 610.128906 638.925781 608.589844 637.609375 607.605469 637.613281 C 601.535156 637.640625 595.457031 637.90625 589.40625 638.375 C 588.625 638.4375 587.425781 640.074219 587.335938 641.0625 C 586.691406 648.34375 587.367188 650.667969 591.886719 658.386719 C 590.628906 658.136719 589.675781 657.890625 588.707031 657.761719 C 585.671875 657.355469 581.84375 657.972656 579.824219 656.335938 C 577.832031 654.722656 577.566406 650.878906 576.746094 647.957031 C 576.089844 645.625 575.738281 643.210938 575.25 640.5 Z M 575.25 640.5 "/>
<path style=" stroke:none;fill-rule:nonzero;fill:rgb(92.54902%,32.156864%,7.843138%);fill-opacity:1;" d="M 429.476562 629.371094 C 429.179688 621.269531 429.136719 613.410156 428.925781 605.558594 C 428.902344 604.578125 428.25 603.085938 427.484375 602.742188 C 422.4375 600.480469 421.996094 596.488281 424.027344 591.875 C 424.265625 591.332031 424.378906 590.734375 424.558594 590.140625 C 421.976562 588.949219 419.503906 587.8125 416.070312 586.230469 C 419.699219 584.382812 422.429688 582.992188 425.496094 581.429688 C 424.722656 580.546875 423.941406 579.796875 423.332031 578.921875 C 420.921875 575.472656 422.480469 570.773438 426.464844 569.234375 C 427.808594 568.714844 429.238281 568.261719 430.382812 567.433594 C 433.375 565.273438 436.214844 564.535156 439.394531 567.140625 C 440.125 567.738281 441.617188 567.320312 442.523438 567.804688 C 444.300781 568.757812 446.695312 569.675781 447.371094 571.242188 C 448.015625 572.734375 446.988281 575.097656 446.328125 576.949219 C 445.859375 578.265625 444.789062 579.367188 444.339844 580.035156 C 446.34375 582.820312 448.328125 585.246094 449.9375 587.898438 C 451.882812 591.117188 453.433594 594.566406 455.289062 597.839844 C 457.320312 601.429688 461.066406 602.523438 464.640625 602.878906 C 473.859375 603.789062 481.808594 601.410156 487.339844 593.136719 C 490.648438 588.1875 493.871094 582.703125 500.164062 581.089844 C 504.109375 580.078125 508.824219 578.855469 512 582.441406 C 515.167969 586.011719 515.355469 589.605469 511.011719 594.265625 C 517.03125 598.605469 516.324219 603.347656 508.929688 608.277344 C 511.597656 611.660156 511.707031 615.394531 508.609375 618.160156 C 502.90625 623.25 498.667969 629.355469 494.648438 635.792969 C 489.4375 644.128906 480.878906 647.433594 471.730469 649.535156 C 470.4375 649.832031 468.292969 650.558594 468.234375 651.238281 C 468.097656 652.722656 468.910156 654.371094 469.597656 655.832031 C 470.207031 657.117188 471.175781 658.234375 472.195312 659.734375 C 470.621094 660.429688 469.425781 661.394531 468.214844 661.417969 C 460.996094 661.5625 453.773438 661.492188 446.40625 661.492188 C 446.40625 660.230469 446.40625 659.273438 446.40625 657.757812 C 451.367188 657.1875 456.480469 656.601562 461.847656 655.988281 C 460.949219 652.53125 459.566406 650.871094 456.265625 650.105469 C 448.398438 648.285156 440.40625 646.164062 435.125 639.359375 C 432.871094 636.453125 431.464844 632.886719 429.476562 629.371094 M 482.386719 630.753906 C 467.296875 637.976562 455.085938 633.40625 451.003906 619.011719 C 448.988281 622.703125 450.429688 629.339844 454.140625 632.210938 C 462.128906 638.394531 476.421875 638.695312 483.863281 630.949219 C 483.976562 630.699219 484.09375 630.445312 484.210938 630.195312 C 483.789062 630.359375 483.367188 630.523438 482.386719 630.753906 Z M 482.386719 630.753906 "/>
<path style=" stroke:none;fill-rule:nonzero;fill:rgb(92.54902%,32.156864%,7.843138%);fill-opacity:1;" d="M 292.71875 612.242188 C 294.507812 605.410156 296.96875 598.890625 297.472656 592.226562 C 297.847656 587.265625 295.679688 582.113281 294.660156 577.136719 C 299.546875 577.152344 303.578125 581.492188 308.828125 595.496094 C 312.15625 590.996094 315.304688 586.421875 318.777344 582.113281 C 324.40625 575.121094 329.90625 567.777344 338.570312 564.335938 C 341.96875 562.984375 346.046875 562.371094 349.667969 562.773438 C 355.3125 563.402344 358.148438 567.75 358.464844 574.917969 C 358.792969 582.441406 358.1875 589.945312 355.402344 596.988281 C 354.449219 599.394531 352.371094 601.679688 350.234375 603.222656 C 347.390625 605.269531 344.101562 606.878906 340.777344 608.019531 C 338.417969 608.828125 335.6875 608.550781 332.9375 608.769531 C 335.605469 613.453125 330.949219 615.402344 328.820312 617.6875 C 322.515625 624.457031 315.554688 630.613281 308.847656 637.007812 C 309.195312 637.433594 309.539062 637.859375 309.886719 638.285156 C 310.742188 637.746094 311.746094 637.351562 312.425781 636.644531 C 316.8125 632.09375 321.039062 627.386719 325.480469 622.890625 C 333.203125 615.078125 341.632812 608.152344 352.25 604.683594 C 355.777344 603.53125 359.671875 603.445312 363.421875 603.070312 C 364.207031 602.992188 365.792969 603.828125 365.777344 604.1875 C 365.734375 605.15625 365.25 606.34375 364.527344 606.984375 C 362.894531 608.433594 360.949219 609.527344 359.238281 610.902344 C 352.96875 615.949219 349.75 622.925781 347.277344 630.304688 C 345.015625 637.054688 342.472656 643.742188 337.390625 648.84375 C 332.316406 653.9375 326.222656 657.515625 318.710938 657.734375 C 315.214844 657.832031 311.714844 657.75 308.242188 657.75 C 306.300781 662.683594 304.921875 663.34375 299.652344 661.453125 C 297.847656 660.808594 296.160156 659.746094 294.53125 658.699219 C 291.253906 656.59375 290.980469 655.023438 292.773438 651.746094 C 293.242188 650.890625 293.609375 649.308594 293.160156 648.722656 C 284.515625 637.453125 286.636719 625.929688 292.105469 614.265625 C 292.359375 613.722656 292.410156 613.085938 292.71875 612.242188 M 335.894531 627.535156 C 331.75 632.199219 327.605469 636.859375 323.136719 641.800781 C 323.019531 642.054688 322.90625 642.304688 322.789062 642.558594 C 323.210938 642.394531 323.632812 642.226562 324.585938 642 C 330.523438 638.871094 333.839844 633.484375 337.222656 627.632812 C 337.265625 627.292969 337.308594 626.953125 337.351562 626.613281 C 336.992188 626.8125 336.636719 627.007812 335.894531 627.535156 M 305.242188 622.082031 C 304.019531 626.875 302.59375 631.628906 301.703125 636.480469 C 301.46875 637.75 302.542969 639.851562 303.664062 640.59375 C 304.660156 641.253906 306.550781 640.5625 307.917969 640.476562 C 306.289062 639.515625 303.90625 638.667969 303.964844 638.054688 C 304.285156 634.738281 305.148438 631.46875 305.945312 628.207031 C 306.332031 626.628906 307.109375 625.144531 307.472656 623.5625 C 308.441406 619.386719 306.933594 614.34375 311.839844 611.824219 C 310.574219 610.164062 309.460938 608.707031 308.632812 607.625 C 307.554688 612.046875 306.40625 616.75 305.242188 622.082031 Z M 305.242188 622.082031 "/>
<path style=" stroke:none;fill-rule:nonzero;fill:rgb(92.54902%,32.156864%,7.843138%);fill-opacity:1;" d="M 138 625.445312 C 137.210938 608.890625 142.324219 594.453125 151.828125 581.667969 C 154.945312 577.472656 159.242188 573.710938 163.785156 571.136719 C 169.898438 567.664062 179.535156 570.660156 184.46875 576.339844 C 191.683594 584.644531 196.800781 594.167969 199.835938 604.65625 C 201.550781 610.59375 202.914062 616.832031 203.105469 622.972656 C 203.652344 640.625 194.515625 655.550781 175.675781 659.726562 C 164.230469 662.265625 153.125 658.480469 144.78125 647.359375 C 140.007812 640.992188 137.929688 633.726562 138 625.445312 Z M 138 625.445312 "/>
<path style=" stroke:none;fill-rule:nonzero;fill:rgb(92.54902%,32.156864%,7.843138%);fill-opacity:1;" d="M 234.003906 608.929688 C 235.710938 623.832031 236.433594 638.371094 224.949219 649.757812 C 216.746094 657.894531 206.859375 661.789062 195.105469 657.824219 C 194.429688 657.59375 193.648438 657.664062 192.058594 657.515625 C 193.210938 655.96875 193.890625 654.753906 194.847656 653.820312 C 203.320312 645.554688 207.445312 635.347656 206.878906 623.71875 C 206.167969 609.144531 201.816406 592.691406 191.292969 578.398438 C 197.488281 570.714844 211.757812 567.175781 220.128906 575.828125 C 227.648438 583.597656 230.796875 593.121094 233.222656 603.136719 C 233.652344 604.914062 233.75 606.769531 234.003906 608.929688 Z M 234.003906 608.929688 "/>
<path style=" stroke:none;fill-rule:nonzero;fill:rgb(100%,100%,100%);fill-opacity:1;" d="M 483.539062 631.230469 C 476.421875 638.695312 462.128906 638.394531 454.140625 632.210938 C 450.429688 629.339844 448.988281 622.703125 451.003906 619.011719 C 455.085938 633.40625 467.296875 637.976562 482.808594 630.867188 C 483.328125 631.0625 483.433594 631.144531 483.539062 631.230469 Z M 483.539062 631.230469 "/>
<path style=" stroke:none;fill-rule:nonzero;fill:rgb(100%,100%,100%);fill-opacity:1;" d="M 483.085938 630.832031 C 483.367188 630.523438 483.789062 630.359375 484.210938 630.195312 C 484.09375 630.445312 483.976562 630.699219 483.699219 631.089844 C 483.433594 631.144531 483.328125 631.0625 483.085938 630.832031 Z M 483.085938 630.832031 "/>
<path style=" stroke:none;fill-rule:nonzero;fill:rgb(100%,100%,100%);fill-opacity:1;" d="M 305.25 621.765625 C 306.40625 616.75 307.554688 612.046875 308.632812 607.625 C 309.460938 608.707031 310.574219 610.164062 311.839844 611.824219 C 306.933594 614.34375 308.441406 619.386719 307.472656 623.5625 C 307.109375 625.144531 306.332031 626.628906 305.945312 628.207031 C 305.148438 631.46875 304.285156 634.738281 303.964844 638.054688 C 303.90625 638.667969 306.289062 639.515625 307.917969 640.476562 C 306.550781 640.5625 304.660156 641.253906 303.664062 640.59375 C 302.542969 639.851562 301.46875 637.75 301.703125 636.480469 C 302.59375 631.628906 304.019531 626.875 305.25 621.765625 Z M 305.25 621.765625 "/>
<path style=" stroke:none;fill-rule:nonzero;fill:rgb(100%,100%,100%);fill-opacity:1;" d="M 323.460938 641.519531 C 327.605469 636.859375 331.75 632.199219 336.210938 627.527344 C 336.621094 627.613281 336.71875 627.707031 336.8125 627.804688 C 333.839844 633.484375 330.523438 638.871094 324.179688 641.886719 C 323.671875 641.6875 323.566406 641.605469 323.460938 641.519531 Z M 323.460938 641.519531 "/>
<path style=" stroke:none;fill-rule:nonzero;fill:rgb(100%,100%,100%);fill-opacity:1;" d="M 336.402344 627.359375 C 336.636719 627.007812 336.992188 626.8125 337.351562 626.613281 C 337.308594 626.953125 337.265625 627.292969 337.015625 627.71875 C 336.71875 627.707031 336.621094 627.613281 336.402344 627.359375 Z M 336.402344 627.359375 "/>
<path style=" stroke:none;fill-rule:nonzero;fill:rgb(100%,100%,100%);fill-opacity:1;" d="M 323.914062 641.917969 C 323.632812 642.226562 323.210938 642.394531 322.789062 642.558594 C 322.90625 642.304688 323.019531 642.054688 323.300781 641.660156 C 323.566406 641.605469 323.671875 641.6875 323.914062 641.917969 Z M 323.914062 641.917969 "/>
</g>
</svg>
